<svg width="21" height="20" viewBox="0 0 21 20" fill="none" xmlns="http://www.w3.org/2000/svg">
    <path d="M10.7973 6.66525C8.96109 6.66525 7.46261 8.16376 7.46261 10C7.46261 11.8362 8.96109 13.3348 10.7973 13.3348C12.6335 13.3348 14.132 11.8362 14.132 10C14.132 8.16376 12.6335 6.66525 10.7973 6.66525ZM20.7989 10C20.7989 8.61907 20.8114 7.25064 20.7338 5.87221C20.6563 4.27113 20.291 2.85017 19.1203 1.67938C17.947 0.506085 16.5286 0.14334 14.9275 0.065788C13.5466 -0.0117644 12.1782 0.000744113 10.7998 0.000744113C9.41889 0.000744113 8.0505 -0.0117644 6.67209 0.065788C5.07104 0.14334 3.6501 0.508587 2.47933 1.67938C1.30606 2.85267 0.943326 4.27113 0.865775 5.87221C0.788224 7.25314 0.800732 8.62157 0.800732 10C0.800732 11.3784 0.788224 12.7494 0.865775 14.1278C0.943326 15.7289 1.30857 17.1498 2.47933 18.3206C3.65261 19.4939 5.07104 19.8567 6.67209 19.9342C8.053 20.0118 9.4214 19.9993 10.7998 19.9993C12.1807 19.9993 13.5491 20.0118 14.9275 19.9342C16.5286 19.8567 17.9495 19.4914 19.1203 18.3206C20.2935 17.1473 20.6563 15.7289 20.7338 14.1278C20.8139 12.7494 20.7989 11.3809 20.7989 10ZM10.7973 15.131C7.95793 15.131 5.66643 12.8394 5.66643 10C5.66643 7.16058 7.95793 4.86903 10.7973 4.86903C13.6367 4.86903 15.9282 7.16058 15.9282 10C15.9282 12.8394 13.6367 15.131 10.7973 15.131ZM16.1383 5.8572C15.4754 5.8572 14.94 5.32184 14.94 4.65889C14.94 3.99594 15.4754 3.46058 16.1383 3.46058C16.8012 3.46058 17.3366 3.99594 17.3366 4.65889C17.3368 4.81631 17.3059 4.97222 17.2458 5.1177C17.1856 5.26317 17.0974 5.39535 16.9861 5.50666C16.8748 5.61798 16.7426 5.70624 16.5971 5.76639C16.4516 5.82654 16.2957 5.8574 16.1383 5.8572Z" fill="currentColor"/>
</svg>
