<svg width="21" height="20" viewBox="0 0 21 20" fill="none" xmlns="http://www.w3.org/2000/svg">
    <path d="M5.09998 20H0.849972V6.625H5.09998V20ZM2.97498 4.75C1.59998 4.75 0.599976 3.75 0.599976 2.375C0.599976 1 1.72498 0 2.97498 0C4.34998 0 5.34998 1 5.34998 2.375C5.34998 3.75 4.34998 4.75 2.97498 4.75ZM20.6 20H16.35V12.75C16.35 10.625 15.475 10 14.225 10C12.975 10 11.725 11 11.725 12.875V20H7.47498V6.625H11.475V8.5C11.85 7.625 13.35 6.25 15.475 6.25C17.85 6.25 20.35 7.625 20.35 11.75V20H20.6Z" fill="currentColor"/>
</svg>
