<svg  viewBox="0 0 178 59" fill="none" xmlns="http://www.w3.org/2000/svg">
    <g clip-path="url(#clip0_953_173)">
        <path d="M38.2689 19.742H19.0137V39.2585H38.2689V19.742Z" fill="#49B5AF"/>
        <path d="M19.0135 58.9998V41.5005L0 26.6225V58.9998H19.0135Z" fill="#303030"/>
        <path d="M38.2787 0V17.4993L57.2922 32.3671V0H38.2787Z" fill="#303030"/>
        <path d="M57.2922 55.9382V34.6094L38.2787 19.7314V58.9998H53.3747L57.2922 55.9382Z" fill="#1CA29B"/>
        <path d="M0 3.06161V24.3905L19.0135 39.2582V0H3.90744L0 3.06161Z" fill="#1CA29B"/>
        <path d="M71.9452 37.5586H74.2212V10.2703H71.9452V7.99717H80.747V10.2703H78.471V21.2676H90.0725V10.2703H87.7965V7.99717H96.5983V10.2703H94.3223V37.5586H96.5983V39.8215H87.7965V37.5586H90.0725V23.8889H78.471V37.5586H80.747V39.8215H71.9452V37.5586Z" fill="#303030"/>
        <path d="M118.774 37.5588H121.141V39.8319H114.917V37.3847C114.107 38.3912 113.071 39.1849 111.896 39.6988C110.656 40.2122 109.327 40.4631 107.988 40.436C105.841 40.5562 103.731 39.8217 102.107 38.3881C101.374 37.7038 100.798 36.8637 100.42 35.9275C100.043 34.9913 99.8725 33.9821 99.9217 32.9715C99.8734 31.9253 100.074 30.8828 100.507 29.9326C100.94 28.9824 101.593 28.1526 102.409 27.5138C104.496 26.1219 106.968 25.4505 109.459 25.599H114.877V24.0631C114.921 23.3257 114.805 22.5874 114.537 21.9007C114.269 21.214 113.856 20.5958 113.326 20.0902C112.115 19.0615 110.56 18.5479 108.985 18.6566C107.683 18.578 106.395 18.9617 105.34 19.742C104.383 20.5205 103.765 21.649 103.618 22.8855H101.604V18.2982C102.855 17.7178 104.165 17.2783 105.511 16.9876C106.723 16.701 107.963 16.5567 109.207 16.5575C112.299 16.5575 114.665 17.3357 116.256 18.8717C117.848 20.4076 118.704 22.7115 118.704 25.6809L118.774 37.5588ZM114.917 27.9131H109.882C108.362 27.794 106.851 28.2417 105.632 29.1726C105.133 29.668 104.748 30.2686 104.502 30.9321C104.257 31.5956 104.158 32.3057 104.212 33.0124C104.177 33.7049 104.285 34.3972 104.53 35.0446C104.774 35.6919 105.15 36.2798 105.632 36.7703C106.402 37.5489 107.385 38.0742 108.452 38.2779C109.519 38.4817 110.623 38.3546 111.618 37.913C112.614 37.4715 113.456 36.736 114.035 35.8019C114.614 34.8677 114.904 33.7782 114.867 32.6745L114.917 27.9131Z" fill="#303030"/>
        <path d="M159.922 37.5588H162.279V39.8319H156.055V37.3847C155.265 38.3863 154.25 39.18 153.095 39.6988C151.854 40.2103 150.525 40.4611 149.187 40.4361C147.039 40.5573 144.93 39.8227 143.306 38.3882C142.571 37.7047 141.993 36.865 141.614 35.9288C141.234 34.9926 141.062 33.9829 141.11 32.9715C141.062 31.9242 141.263 30.8805 141.698 29.93C142.133 28.9794 142.789 28.1503 143.608 27.5138C145.693 26.1192 148.166 25.4476 150.657 25.599H156.065V24.0631C156.103 23.3228 155.98 22.5832 155.705 21.8966C155.43 21.2101 155.01 20.5934 154.474 20.0902C153.263 19.0624 151.708 18.549 150.134 18.6566C148.831 18.5755 147.542 18.9594 146.488 19.742C146.011 20.1245 145.614 20.5992 145.318 21.1388C145.023 21.6783 144.835 22.272 144.766 22.8855H142.752V18.2983C144.003 17.7163 145.313 17.2768 146.659 16.9876C147.871 16.7004 149.111 16.5561 150.355 16.5575C153.447 16.5575 155.804 17.3357 157.405 18.8717C159.006 20.4076 159.852 22.7115 159.852 25.6809L159.922 37.5588ZM156.055 27.9131H151.08C149.56 27.7931 148.049 28.2409 146.831 29.1726C146.332 29.668 145.946 30.2686 145.701 30.9321C145.456 31.5956 145.357 32.3057 145.411 33.0124C145.376 33.7049 145.484 34.3972 145.728 35.0446C145.973 35.6919 146.348 36.2798 146.831 36.7703C147.599 37.5506 148.582 38.0774 149.649 38.282C150.716 38.4867 151.82 38.3598 152.815 37.9178C153.811 37.4758 154.652 36.7392 155.23 35.804C155.808 34.8687 156.096 33.7782 156.055 32.6745V27.9131Z" fill="#303030"/>
        <path d="M136.861 37.5586H132.964V6.64552H125.179V8.91869H129.097V37.5586H125.179V39.8215H136.861V37.5586Z" fill="#303030"/>
        <path d="M178 37.5586H174.102V6.64552H166.328V8.91869H170.245V37.5586H166.328V39.8215H178V37.5586Z" fill="#303030"/>
        <path d="M71.9754 48.7401L71.9452 48.2281H74.5434L74.5132 48.7401H73.5565V52.2727H72.9422V48.7401H71.9754Z" fill="#00A19B"/>
        <path d="M76.1449 52.2727V48.2281H78.4914L78.4612 48.7298H76.7592V49.9688H78.149V50.4706H76.7592V51.771H78.5014L78.5317 52.2727H76.1449Z" fill="#00A19B"/>
        <path d="M82.6608 52.1192C82.5025 52.1939 82.3371 52.2523 82.1673 52.2933C81.9923 52.3345 81.8132 52.3551 81.6335 52.3547C81.4017 52.3619 81.1712 52.3164 80.9588 52.2216C80.7574 52.1294 80.5837 51.9845 80.4553 51.8018C80.3171 51.6033 80.2148 51.3814 80.1532 51.1464C80.0863 50.8683 80.0525 50.5829 80.0524 50.2966C80.0507 49.996 80.088 49.6964 80.1633 49.4057C80.2183 49.1653 80.3211 48.9388 80.4654 48.7402C80.5964 48.5574 80.7692 48.4098 80.9689 48.3101C81.1911 48.2115 81.4315 48.1626 81.6739 48.1668C82.0226 48.1571 82.3684 48.2344 82.6809 48.392V49.2829H82.1472V48.7709C82.0726 48.7411 81.9949 48.7205 81.9155 48.7095C81.8387 48.6989 81.7607 48.6989 81.6839 48.7095C81.5317 48.7003 81.38 48.7336 81.2451 48.8058C81.1102 48.878 80.9973 48.9863 80.9186 49.119C80.7292 49.484 80.6421 49.8949 80.6668 50.3068C80.6501 50.5215 80.6501 50.7372 80.6668 50.9519C80.699 51.1251 80.7603 51.2914 80.8481 51.4434C80.9187 51.575 81.0231 51.6847 81.1502 51.7608C81.2965 51.8371 81.459 51.8758 81.6235 51.8735C81.7759 51.8727 81.9278 51.8556 82.0767 51.8223C82.2181 51.7869 82.3563 51.7389 82.4896 51.6789L82.6608 52.1192Z" fill="#00A19B"/>
        <path d="M86.6887 52.2727V50.5115H85.0875V52.2727H84.4731V48.2281H85.0875V49.9791H86.6887V48.2281H87.303V52.2727H86.6887Z" fill="#00A19B"/>
        <path d="M89.3171 52.2727V48.2281H90.0624L91.3111 50.7675L91.5831 51.3716H91.6535L91.6032 50.9928V48.2281H92.2074V52.2727H91.4723L90.2134 49.7333L89.9516 49.119H89.8811L89.9214 49.508V52.2727H89.3171Z" fill="#00A19B"/>
        <path d="M95.6415 52.3547C95.3959 52.3587 95.1522 52.3098 94.9265 52.2113C94.7244 52.1203 94.5479 51.9796 94.4129 51.8018C94.2635 51.6088 94.1569 51.3852 94.1007 51.1464C94.0283 50.8589 93.9944 50.5626 94 50.2658C93.9951 49.9657 94.0289 49.6662 94.1007 49.375C94.1613 49.1347 94.2674 48.9086 94.4129 48.7094C94.5504 48.5315 94.726 48.3879 94.9265 48.2896C95.1554 48.19 95.4026 48.1411 95.6516 48.1463C95.8939 48.1431 96.134 48.1919 96.3565 48.2896C96.5585 48.3806 96.735 48.5214 96.8701 48.6992C97.0174 48.8935 97.1237 49.1166 97.1823 49.3545C97.3167 49.9405 97.3167 50.5502 97.1823 51.1362C97.1216 51.3765 97.0156 51.6026 96.8701 51.8018C96.7323 51.9767 96.5565 52.1169 96.3565 52.2113C96.1308 52.3098 95.8871 52.3587 95.6415 52.3547M96.6486 50.2351C96.6696 49.8288 96.5789 49.4247 96.3867 49.0678C96.3068 48.9393 96.1947 48.8347 96.0621 48.7645C95.9294 48.6944 95.7808 48.6612 95.6314 48.6685C95.4809 48.6646 95.3318 48.6999 95.1984 48.7709C95.0736 48.849 94.9671 48.9538 94.8862 49.0781C94.7994 49.2353 94.735 49.4042 94.6949 49.5798C94.652 49.8058 94.6318 50.0357 94.6344 50.2658C94.6322 50.4858 94.6524 50.7054 94.6949 50.9212C94.7195 51.0949 94.7777 51.2619 94.866 51.4127C94.9409 51.5419 95.0488 51.648 95.1782 51.7199C95.3172 51.7965 95.4733 51.8353 95.6314 51.8325C95.7925 51.8331 95.9514 51.7945 96.0947 51.7199C96.2246 51.644 96.3323 51.5345 96.4069 51.4024C96.5014 51.25 96.5631 51.079 96.5882 50.9007C96.6306 50.6815 96.6508 50.4585 96.6486 50.2351V50.2351Z" fill="#00A19B"/>
        <path d="M101.271 52.2727H99.0658V48.2281H99.6801V51.771H101.251L101.271 52.2727Z" fill="#00A19B"/>
        <path d="M104.171 52.3547C103.926 52.3587 103.682 52.3099 103.456 52.2114C103.254 52.1204 103.078 51.9796 102.943 51.8018C102.793 51.6088 102.687 51.3853 102.631 51.1465C102.555 50.8594 102.517 50.5631 102.52 50.2659C102.518 49.9653 102.555 49.6657 102.631 49.375C102.691 49.1347 102.797 48.9087 102.943 48.7095C103.08 48.5316 103.256 48.388 103.456 48.2897C103.682 48.1912 103.926 48.1423 104.171 48.1463C104.417 48.1432 104.66 48.192 104.886 48.2897C105.088 48.3807 105.265 48.5214 105.4 48.6992C105.544 48.8959 105.649 49.1182 105.712 49.3546C105.847 49.9406 105.847 50.5502 105.712 51.1362C105.647 51.375 105.542 51.6003 105.4 51.8018C105.262 51.9768 105.086 52.1169 104.886 52.2114C104.66 52.309 104.417 52.3578 104.171 52.3547M105.178 50.2352C105.199 49.8289 105.109 49.4247 104.917 49.0679C104.838 48.9402 104.728 48.8359 104.597 48.7658C104.466 48.6956 104.319 48.662 104.171 48.6685C104.017 48.6634 103.865 48.6986 103.728 48.7709C103.603 48.849 103.497 48.9538 103.416 49.0781C103.329 49.2353 103.265 49.4042 103.225 49.5798C103.182 49.8058 103.162 50.0357 103.164 50.2659C103.162 50.4859 103.182 50.7055 103.225 50.9212C103.249 51.0949 103.308 51.2619 103.396 51.4127C103.471 51.5419 103.579 51.6481 103.708 51.7199C103.847 51.7966 104.003 51.8354 104.161 51.8325C104.322 51.8332 104.481 51.7946 104.625 51.7199C104.752 51.6412 104.859 51.5323 104.937 51.4025C105.023 51.246 105.084 51.0766 105.118 50.9007C105.16 50.6815 105.181 50.4585 105.178 50.2352V50.2352Z" fill="#00A19B"/>
        <path d="M109.63 49.2829V48.7914L109.338 48.6992C109.237 48.6881 109.136 48.6881 109.036 48.6992C108.879 48.691 108.724 48.7244 108.584 48.7963C108.444 48.8681 108.326 48.9759 108.24 49.1088C108.149 49.2602 108.084 49.4265 108.049 49.6003C108.006 49.8194 107.985 50.0425 107.988 50.2659C107.96 50.6813 108.047 51.0964 108.24 51.4639C108.313 51.5899 108.417 51.6935 108.543 51.7638C108.669 51.8341 108.811 51.8685 108.955 51.8632C109.072 51.8777 109.19 51.8777 109.307 51.8632C109.426 51.8428 109.542 51.8049 109.65 51.7506V50.7983H109.036V50.358H110.204V52.1499L109.992 52.2523L109.741 52.3547L109.388 52.4366C109.234 52.4487 109.079 52.4487 108.925 52.4366C108.692 52.4389 108.462 52.39 108.25 52.2933C108.056 52.1984 107.887 52.058 107.757 51.8837C107.612 51.6851 107.509 51.4586 107.454 51.2181C107.379 50.9241 107.341 50.6211 107.344 50.3171C107.34 50.0372 107.374 49.7582 107.444 49.4877C107.497 49.2464 107.6 49.0195 107.746 48.8221C107.88 48.6389 108.052 48.4885 108.25 48.3818C108.481 48.2749 108.732 48.2224 108.985 48.2282C109.189 48.2244 109.392 48.2485 109.589 48.2999C109.782 48.3493 109.971 48.4143 110.153 48.4944V49.3648L109.63 49.2829Z" fill="#00A19B"/>
        <path d="M111.956 52.2727V51.8529L112.188 51.8324V48.6684L111.956 48.6479V48.2281H113.024V48.6479L112.802 48.6684V51.8324L113.024 51.8529V52.2727H111.956Z" fill="#00A19B"/>
        <path d="M114.887 52.2727V48.2281H117.223L117.193 48.7298H115.501V49.9688H116.891V50.4706H115.501V51.771H117.233L117.263 52.2727H114.887Z" fill="#00A19B"/>
        <path d="M120.113 48.6687C119.922 48.6574 119.732 48.7075 119.569 48.812C119.506 48.854 119.454 48.9118 119.419 48.9799C119.384 49.048 119.366 49.1242 119.368 49.2011C119.358 49.2758 119.358 49.3517 119.368 49.4264C119.392 49.4922 119.429 49.5518 119.479 49.6005C119.556 49.67 119.645 49.7254 119.741 49.7643C119.885 49.8379 120.032 49.9029 120.184 49.9588C120.346 50.0121 120.504 50.0771 120.657 50.1534C120.78 50.2186 120.894 50.2976 121 50.3889C121.095 50.4801 121.17 50.5916 121.219 50.7154C121.268 50.8393 121.289 50.9725 121.281 51.1057C121.293 51.2786 121.266 51.452 121.204 51.6131C121.141 51.7743 121.044 51.9193 120.919 52.0375C120.63 52.2588 120.274 52.371 119.912 52.3549H119.559L119.217 52.2934L118.905 52.1911C118.814 52.1635 118.726 52.1257 118.643 52.0784L118.784 51.6074C118.966 51.6858 119.155 51.7475 119.348 51.7917C119.527 51.8318 119.709 51.8524 119.892 51.8532C120.001 51.8528 120.11 51.8355 120.214 51.802C120.305 51.7807 120.388 51.7347 120.456 51.6688C120.525 51.615 120.58 51.5447 120.617 51.4641C120.658 51.3779 120.679 51.2833 120.677 51.1876C120.678 51.0963 120.661 51.0058 120.627 50.9214C120.595 50.8495 120.547 50.7864 120.486 50.737C120.414 50.6732 120.332 50.6214 120.244 50.5835L119.892 50.4503C119.705 50.3906 119.523 50.3152 119.348 50.2251C119.213 50.1618 119.091 50.0751 118.985 49.9691C118.898 49.8843 118.832 49.7787 118.794 49.6619C118.751 49.5334 118.731 49.3982 118.734 49.2626C118.731 49.0975 118.761 48.9336 118.824 48.7813C118.885 48.6498 118.975 48.5342 119.086 48.4434C119.212 48.347 119.356 48.2774 119.509 48.2386C119.696 48.1868 119.889 48.1626 120.083 48.1669H120.325H120.566L120.838 48.2284L121.151 48.3103L121.03 48.8018L120.758 48.7301H120.526H120.315H120.113" fill="#00A19B"/>
        <path d="M125.088 52.2727L125.219 51.7403L126.166 48.6684H125.944V48.2281H127.143L128.23 51.7505L128.351 52.283H127.737L127.435 51.259H126.025L125.713 52.283L125.088 52.2727ZM126.7 48.6991V48.9244L126.166 50.747H127.284L126.75 48.9244V48.6991H126.7Z" fill="#00A19B"/>
        <path d="M130.033 52.2727V48.2281H130.778L132.027 50.7675L132.299 51.3716H132.37L132.319 50.9928V48.2281H132.924V52.2727H132.188L130.929 49.7333L130.668 49.119H130.597L130.637 49.508V52.2727H130.033Z" fill="#00A19B"/>
        <path d="M134.948 52.2725V48.1767H136.247C136.47 48.1758 136.691 48.2139 136.901 48.2894C137.093 48.3603 137.265 48.476 137.405 48.6273C137.555 48.8075 137.668 49.0164 137.737 49.2416C137.829 49.5396 137.869 49.8513 137.858 50.1632C137.86 50.4485 137.833 50.7333 137.778 51.0131C137.729 51.2458 137.633 51.4656 137.496 51.6582C137.368 51.8377 137.198 51.982 137.002 52.078C136.77 52.1776 136.519 52.2264 136.267 52.2213L134.948 52.2725ZM135.562 48.7297V51.8015H136.206C136.366 51.8086 136.525 51.777 136.67 51.7094C136.799 51.6467 136.91 51.5515 136.992 51.4329C137.081 51.286 137.139 51.1222 137.163 50.9516C137.207 50.7188 137.227 50.4821 137.224 50.2451C137.241 50.0373 137.241 49.8284 137.224 49.6205C137.19 49.4589 137.132 49.3035 137.052 49.1597C136.974 49.0358 136.867 48.9337 136.74 48.8628C136.59 48.7884 136.424 48.7532 136.257 48.7604L135.562 48.7297Z" fill="#00A19B"/>
        <path d="M143.085 48.6687C142.893 48.6574 142.703 48.7075 142.541 48.812C142.477 48.854 142.426 48.9118 142.39 48.9799C142.355 49.048 142.338 49.1242 142.34 49.2011C142.329 49.2758 142.329 49.3517 142.34 49.4264C142.363 49.4922 142.401 49.5518 142.45 49.6005C142.528 49.67 142.616 49.7254 142.712 49.7643C142.856 49.8379 143.004 49.9029 143.155 49.9588C143.317 50.0121 143.476 50.0771 143.629 50.1534C143.751 50.2186 143.866 50.2976 143.971 50.3889C144.059 50.4772 144.131 50.5813 144.182 50.6961C144.228 50.8278 144.252 50.9661 144.253 51.1057C144.264 51.2786 144.238 51.452 144.175 51.6131C144.112 51.7743 144.015 51.9193 143.89 52.0375C143.602 52.2604 143.245 52.3728 142.883 52.3549H142.531L142.188 52.2935L141.876 52.1911C141.785 52.1635 141.697 52.1257 141.614 52.0784L141.755 51.6074C141.938 51.6858 142.126 51.7475 142.319 51.7917C142.498 51.8318 142.68 51.8524 142.863 51.8532C142.972 51.8528 143.081 51.8355 143.185 51.802C143.276 51.7807 143.36 51.7347 143.427 51.6688C143.499 51.6179 143.555 51.5467 143.588 51.4641C143.629 51.3779 143.65 51.2833 143.649 51.1876C143.666 51.0997 143.666 51.0093 143.649 50.9214C143.617 50.8495 143.568 50.7864 143.508 50.737C143.436 50.6732 143.354 50.6214 143.266 50.5835L142.914 50.4503C142.726 50.3906 142.545 50.3152 142.37 50.2251C142.235 50.1618 142.112 50.0751 142.007 49.9691C141.919 49.8843 141.854 49.7787 141.816 49.6619C141.773 49.5334 141.753 49.3982 141.755 49.2626C141.752 49.0975 141.783 48.9336 141.846 48.7813C141.907 48.6498 141.996 48.5342 142.108 48.4434C142.234 48.347 142.378 48.2774 142.531 48.2386C142.718 48.1868 142.911 48.1626 143.105 48.1669H143.347H143.588L143.86 48.2284L144.172 48.3103L144.052 48.8018L143.78 48.7301H143.548H143.336H143.135" fill="#00A19B"/>
        <path d="M147.486 52.3547C147.24 52.3587 146.996 52.3098 146.77 52.2113C146.568 52.1203 146.392 51.9796 146.257 51.8018C146.108 51.6088 146.001 51.3852 145.945 51.1464C145.872 50.8589 145.838 50.5626 145.844 50.2658C145.839 49.9657 145.873 49.6662 145.945 49.375C146.005 49.1347 146.111 48.9086 146.257 48.7094C146.394 48.5315 146.57 48.3879 146.77 48.2896C146.999 48.19 147.247 48.1411 147.496 48.1463C147.738 48.1431 147.978 48.1919 148.201 48.2896C148.403 48.3806 148.579 48.5214 148.714 48.6992C148.861 48.8935 148.968 49.1166 149.026 49.3545C149.161 49.9405 149.161 50.5502 149.026 51.1362C148.966 51.3765 148.86 51.6026 148.714 51.8018C148.576 51.9767 148.401 52.1169 148.201 52.2113C147.975 52.3098 147.731 52.3587 147.486 52.3547M148.493 50.2351C148.514 49.8288 148.423 49.4247 148.231 49.0678C148.152 48.9401 148.042 48.8359 147.911 48.7657C147.78 48.6956 147.633 48.662 147.486 48.6685C147.332 48.6633 147.179 48.6986 147.042 48.7709C146.918 48.849 146.811 48.9538 146.73 49.0781C146.643 49.2353 146.579 49.4042 146.539 49.5798C146.496 49.8058 146.476 50.0357 146.478 50.2658C146.476 50.4858 146.496 50.7054 146.539 50.9212C146.563 51.0949 146.622 51.2619 146.71 51.4127C146.785 51.5419 146.893 51.648 147.022 51.7199C147.161 51.7965 147.317 51.8353 147.475 51.8325C147.636 51.8331 147.795 51.7945 147.939 51.7199C148.069 51.644 148.176 51.5345 148.251 51.4024C148.345 51.25 148.407 51.079 148.432 50.9007C148.475 50.6815 148.495 50.4585 148.493 50.2351V50.2351Z" fill="#00A19B"/>
        <path d="M153.115 52.2727H150.91V48.2281H151.534V51.771H153.095L153.115 52.2727Z" fill="#00A19B"/>
        <path d="M155.351 50.9518C155.336 51.0708 155.336 51.1913 155.351 51.3102C155.372 51.415 155.417 51.5132 155.482 51.5969C155.548 51.6716 155.626 51.734 155.714 51.7812C155.827 51.8229 155.946 51.8437 156.066 51.8427C156.183 51.8448 156.299 51.824 156.408 51.7812C156.494 51.741 156.57 51.6815 156.63 51.6071C156.692 51.5211 156.736 51.4237 156.761 51.3204C156.777 51.1947 156.777 51.0673 156.761 50.9416V48.2281H157.496V50.8699C157.501 51.0703 157.478 51.2704 157.426 51.4638C157.391 51.6349 157.318 51.7959 157.214 51.9348C157.105 52.0716 156.963 52.1774 156.801 52.242C156.595 52.3211 156.377 52.3593 156.157 52.3546C155.941 52.3623 155.725 52.3275 155.522 52.2522C155.356 52.1966 155.207 52.0978 155.089 51.9655C154.976 51.8361 154.893 51.6819 154.848 51.515C154.789 51.3159 154.761 51.1085 154.767 50.9006V48.2281H155.381L155.351 50.9518Z" fill="#00A19B"/>
        <path d="M159.036 48.7401L159.006 48.2281H161.604L161.564 48.7401H160.607V52.2727H159.993V48.7401H159.036Z" fill="#00A19B"/>
        <path d="M163.025 52.2727V51.8529L163.257 51.8324V48.6684L163.025 48.6479V48.2281H164.102V48.6479L163.871 48.6684V51.8324L164.102 51.8529V52.2727H163.025Z" fill="#00A19B"/>
        <path d="M167.345 52.3547C167.099 52.3587 166.856 52.3098 166.63 52.2113C166.428 52.1203 166.251 51.9796 166.116 51.8018C165.967 51.6088 165.86 51.3852 165.804 51.1464C165.732 50.8589 165.698 50.5626 165.703 50.2658C165.699 49.9657 165.732 49.6662 165.804 49.375C165.865 49.1347 165.971 48.9086 166.116 48.7094C166.254 48.5315 166.43 48.3879 166.63 48.2896C166.859 48.19 167.106 48.1411 167.355 48.1463C167.597 48.1431 167.838 48.1919 168.06 48.2896C168.262 48.3806 168.439 48.5214 168.574 48.6992C168.721 48.8935 168.827 49.1166 168.886 49.3545C169.02 49.9405 169.02 50.5502 168.886 51.1362C168.825 51.3765 168.719 51.6026 168.574 51.8018C168.436 51.9767 168.26 52.1169 168.06 52.2113C167.834 52.3098 167.591 52.3587 167.345 52.3547M168.352 50.2351C168.373 49.8288 168.282 49.4247 168.09 49.0678C168.012 48.9401 167.902 48.8359 167.771 48.7657C167.64 48.6956 167.493 48.662 167.345 48.6685C167.191 48.6647 167.039 48.6999 166.902 48.7709C166.777 48.849 166.671 48.9538 166.59 49.0781C166.503 49.2353 166.438 49.4042 166.398 49.5798C166.355 49.8058 166.335 50.0357 166.338 50.2658C166.336 50.4858 166.356 50.7054 166.398 50.9212C166.423 51.0949 166.481 51.2619 166.57 51.4127C166.644 51.5419 166.752 51.648 166.882 51.7199C167.024 51.7978 167.184 51.8366 167.345 51.8325C167.503 51.834 167.659 51.7952 167.798 51.7199C167.928 51.644 168.036 51.5345 168.11 51.4024C168.205 51.25 168.267 51.079 168.292 50.9007C168.334 50.6815 168.354 50.4585 168.352 50.2351Z" fill="#00A19B"/>
        <path d="M170.769 52.2727V48.2281H171.515L172.763 50.7675L173.035 51.3716H173.106L173.055 50.9928V48.2281H173.66V52.2727H172.924L171.666 49.7333L171.404 49.119H171.333L171.374 49.508V52.2727H170.769Z" fill="#00A19B"/>
        <path d="M176.812 48.6687C176.617 48.6611 176.425 48.7108 176.258 48.812C176.196 48.8552 176.146 48.9135 176.113 48.9815C176.079 49.0496 176.063 49.1251 176.066 49.2011C176.056 49.2758 176.056 49.3517 176.066 49.4264C176.082 49.4957 176.122 49.5572 176.177 49.6005C176.253 49.6721 176.342 49.7278 176.439 49.7643C176.582 49.8398 176.73 49.9048 176.882 49.9588C177.044 50.0121 177.202 50.0771 177.355 50.1534C177.476 50.2211 177.591 50.2999 177.698 50.3889C177.786 50.4772 177.858 50.5813 177.909 50.6961C177.955 50.8278 177.979 50.9661 177.98 51.1057C177.991 51.2786 177.965 51.452 177.902 51.6131C177.839 51.7743 177.742 51.9193 177.617 52.0375C177.328 52.2588 176.972 52.371 176.61 52.3549H176.248L175.915 52.2934C175.809 52.267 175.705 52.2328 175.603 52.1911C175.51 52.1615 175.419 52.1239 175.331 52.0784L175.472 51.6074C175.657 51.6873 175.85 51.749 176.046 51.7917C176.225 51.8318 176.407 51.8524 176.59 51.8532C176.699 51.8528 176.808 51.8355 176.912 51.802C177.003 51.7807 177.087 51.7347 177.154 51.6688C177.223 51.615 177.279 51.5447 177.315 51.4641C177.356 51.3779 177.377 51.2833 177.376 51.1876C177.393 51.0997 177.393 51.0093 177.376 50.9214C177.344 50.8495 177.295 50.7864 177.235 50.737C177.163 50.6732 177.081 50.6214 176.993 50.5835L176.64 50.4503C176.452 50.3943 176.27 50.3188 176.097 50.2251C175.962 50.1618 175.839 50.0751 175.734 49.9691C175.643 49.8871 175.577 49.7806 175.543 49.6619C175.5 49.5334 175.479 49.3982 175.482 49.2626C175.479 49.0975 175.51 48.9336 175.573 48.7813C175.634 48.6498 175.723 48.5342 175.835 48.4434C175.961 48.347 176.105 48.2774 176.258 48.2386C176.445 48.1868 176.638 48.1626 176.832 48.1669H177.074H177.315L177.587 48.2284L177.889 48.3103L177.778 48.8018L177.507 48.7301H177.275H177.063H176.862" fill="#00A19B"/>
    </g>
    <defs>
        <clipPath id="clip0_953_173">
            <rect width="178" height="59" fill="white"/>
        </clipPath>
    </defs>
</svg>
