<svg  viewBox="0 0 176 57" fill="none" xmlns="http://www.w3.org/2000/svg">
    <g clip-path="url(#clip0_597_854)">
        <path d="M37.8389 19.0728H18.8V37.9277H37.8389V19.0728Z" fill="white"/>
        <path d="M18.7999 56.9997V40.0936L0 25.72V56.9997H18.7999Z" fill="white"/>
        <path d="M37.8486 0.00012207V16.9062L56.6485 31.27V0.00012207H37.8486Z" fill="white"/>
        <path d="M56.6485 54.0421V33.4363L37.8486 19.0626V57H52.775L56.6485 54.0421Z" fill="white"/>
        <path d="M0 2.95783V23.5637L18.7999 37.9275V0H3.86354L0 2.95783Z" fill="white"/>
        <path d="M71.1367 36.2856H73.3871V9.92231H71.1367V7.7262H79.8396V9.92231H77.5892V20.5467H89.0603V9.92231H86.8099V7.7262H95.5128V9.92231H93.2624V36.2856H95.5128V38.4718H86.8099V36.2856H89.0603V23.0792H77.5892V36.2856H79.8396V38.4718H71.1367V36.2856Z" fill="white"/>
        <path d="M117.44 36.2857H119.78V38.4818H113.626V36.1175C112.825 37.0899 111.8 37.8567 110.638 38.3532C109.413 38.8492 108.098 39.0915 106.775 39.0654C104.651 39.1815 102.566 38.4719 100.96 37.0869C100.235 36.4258 99.6656 35.6141 99.2921 34.7097C98.9187 33.8053 98.7503 32.8302 98.799 31.8539C98.7512 30.8432 98.9498 29.836 99.378 28.918C99.8063 28 100.451 27.1983 101.258 26.5812C103.321 25.2365 105.766 24.5878 108.229 24.7313H113.586V23.2475C113.63 22.5351 113.515 21.8218 113.25 21.1584C112.985 20.495 112.576 19.8978 112.052 19.4092C110.855 18.4154 109.318 17.9193 107.761 18.0243C106.473 17.9484 105.199 18.319 104.156 19.0729C103.211 19.825 102.599 20.9152 102.453 22.1098H100.462V17.6781C101.699 17.1173 102.995 16.6927 104.325 16.4118C105.524 16.1349 106.75 15.9955 107.98 15.9963C111.037 15.9963 113.377 16.7482 114.95 18.232C116.523 19.7159 117.37 21.9417 117.37 24.8105L117.44 36.2857ZM113.626 26.967H108.647C107.144 26.8519 105.65 27.2845 104.445 28.1838C103.952 28.6624 103.571 29.2426 103.328 29.8836C103.085 30.5246 102.987 31.2107 103.041 31.8934C103.006 32.5625 103.113 33.2313 103.355 33.8567C103.597 34.4821 103.968 35.0501 104.445 35.5239C105.206 36.2761 106.178 36.7836 107.233 36.9805C108.289 37.1773 109.38 37.0545 110.364 36.6279C111.348 36.2014 112.181 35.4908 112.754 34.5883C113.326 33.6859 113.613 32.6332 113.576 31.567L113.626 26.967Z" fill="white"/>
        <path d="M158.126 36.2857H160.456V38.4818H154.302V36.1175C153.521 37.0851 152.517 37.8519 151.374 38.3532C150.148 38.8473 148.834 39.0896 147.511 39.0654C145.387 39.1826 143.301 38.4729 141.696 37.0869C140.969 36.4267 140.398 35.6155 140.023 34.711C139.647 33.8065 139.477 32.831 139.525 31.8539C139.477 30.8421 139.676 29.8338 140.106 28.9155C140.536 27.9971 141.184 27.1961 141.994 26.5812C144.056 25.2339 146.501 24.585 148.965 24.7313H154.312V23.2475C154.349 22.5323 154.227 21.8177 153.955 21.1545C153.683 20.4912 153.268 19.8954 152.739 19.4092C151.541 18.4163 150.003 17.9203 148.447 18.0243C147.159 17.9459 145.884 18.3168 144.842 19.0729C144.371 19.4424 143.978 19.901 143.685 20.4223C143.393 20.9435 143.208 21.5171 143.139 22.1099H141.148V17.6781C142.385 17.1159 143.681 16.6912 145.011 16.4118C146.21 16.1344 147.436 15.995 148.666 15.9963C151.723 15.9963 154.053 16.7482 155.636 18.232C157.219 19.7159 158.056 21.9417 158.056 24.8105L158.126 36.2857ZM154.302 26.967H149.383C147.88 26.851 146.386 27.2836 145.181 28.1838C144.688 28.6624 144.307 29.2427 144.064 29.8836C143.821 30.5246 143.723 31.2107 143.777 31.8934C143.742 32.5625 143.849 33.2313 144.091 33.8567C144.333 34.4821 144.704 35.0501 145.181 35.524C145.941 36.2778 146.912 36.7867 147.968 36.9844C149.023 37.1822 150.114 37.0595 151.098 36.6325C152.083 36.2055 152.915 35.4939 153.486 34.5904C154.057 33.6868 154.342 32.6333 154.302 31.567V26.967Z" fill="white"/>
        <path d="M135.323 36.2853H131.47V6.42017H123.773V8.61628H127.646V36.2853H123.773V38.4715H135.323V36.2853Z" fill="white"/>
        <path d="M176 36.2853H172.146V6.42017H164.459V8.61628H168.332V36.2853H164.459V38.4715H176V36.2853Z" fill="white"/>
        <path d="M71.1666 47.0879L71.1367 46.5933H73.7058L73.6759 47.0879H72.7299V50.5008H72.1225V47.0879H71.1666Z" fill="white"/>
        <path d="M75.2893 50.5008V46.5933H77.6094L77.5796 47.078H75.8967V48.275H77.2709V48.7597H75.8967V50.016H77.6194L77.6493 50.5008H75.2893Z" fill="white"/>
        <path d="M81.7319 50.3522C81.5754 50.4244 81.4119 50.4807 81.244 50.5204C81.071 50.5602 80.8939 50.5801 80.7162 50.5797C80.487 50.5866 80.2591 50.5427 80.0491 50.4511C79.8499 50.3621 79.6781 50.2221 79.5512 50.0455C79.4146 49.8538 79.3135 49.6394 79.2525 49.4124C79.1864 49.1437 79.1529 48.868 79.1529 48.5914C79.1512 48.3009 79.188 48.0116 79.2625 47.7307C79.3169 47.4984 79.4186 47.2796 79.5612 47.0877C79.6907 46.9111 79.8616 46.7685 80.0591 46.6722C80.2787 46.577 80.5165 46.5298 80.7561 46.5337C81.1009 46.5244 81.4428 46.5991 81.7519 46.7514V47.612H81.2241V47.1174C81.1504 47.0886 81.0735 47.0687 80.9951 47.058C80.9191 47.0479 80.842 47.0479 80.766 47.058C80.6155 47.0492 80.4655 47.0813 80.3321 47.1511C80.1987 47.2208 80.0871 47.3255 80.0093 47.4537C79.8221 47.8064 79.736 48.2033 79.7603 48.6013C79.7439 48.8087 79.7439 49.0171 79.7603 49.2245C79.7922 49.3918 79.8528 49.5524 79.9396 49.6993C80.0094 49.8265 80.1126 49.9325 80.2383 50.006C80.383 50.0797 80.5437 50.117 80.7063 50.1148C80.857 50.1141 81.0072 50.0975 81.1544 50.0653C81.2943 50.0311 81.4309 49.9848 81.5627 49.9268L81.7319 50.3522Z" fill="white"/>
        <path d="M85.7148 50.5008V48.7993H84.1316V50.5008H83.5242V46.5933H84.1316V48.2849H85.7148V46.5933H86.3223V50.5008H85.7148Z" fill="white"/>
        <path d="M88.3135 50.5008V46.5933H89.0503L90.2851 49.0466L90.5539 49.6302H90.6236L90.5738 49.2642V46.5933H91.1713V50.5008H90.4444L89.1997 48.0474L88.9408 47.4539H88.8711L88.9109 47.8298V50.5008H88.3135Z" fill="white"/>
        <path d="M94.567 50.5798C94.3242 50.5837 94.0832 50.5365 93.86 50.4413C93.6603 50.3534 93.4857 50.2174 93.3522 50.0456C93.2045 49.8592 93.0991 49.6432 93.0435 49.4125C92.9719 49.1347 92.9384 48.8485 92.9439 48.5618C92.9391 48.2718 92.9725 47.9824 93.0435 47.7011C93.1035 47.4689 93.2083 47.2506 93.3522 47.0581C93.4881 46.8862 93.6618 46.7475 93.86 46.6525C94.0864 46.5563 94.3308 46.5091 94.577 46.514C94.8166 46.511 95.054 46.5582 95.274 46.6525C95.4737 46.7404 95.6483 46.8764 95.7818 47.0482C95.9275 47.2359 96.0326 47.4514 96.0905 47.6813C96.2234 48.2475 96.2234 48.8365 96.0905 49.4026C96.0305 49.6348 95.9257 49.8532 95.7818 50.0456C95.6455 50.2146 95.4717 50.3501 95.274 50.4413C95.0508 50.5365 94.8099 50.5837 94.567 50.5798M95.5628 48.5321C95.5835 48.1396 95.4939 47.7491 95.3039 47.4043C95.2248 47.2802 95.1141 47.1791 94.9829 47.1113C94.8517 47.0435 94.7048 47.0115 94.5571 47.0185C94.4082 47.0148 94.2608 47.0489 94.1289 47.1175C94.0055 47.1929 93.9001 47.2942 93.8202 47.4142C93.7344 47.5661 93.6707 47.7293 93.631 47.899C93.5886 48.1173 93.5686 48.3394 93.5713 48.5618C93.5691 48.7743 93.5891 48.9865 93.631 49.1949C93.6554 49.3627 93.7129 49.5241 93.8003 49.6697C93.8743 49.7945 93.981 49.8971 94.109 49.9665C94.2464 50.0405 94.4008 50.078 94.5571 50.0753C94.7163 50.0759 94.8734 50.0386 95.0151 49.9665C95.1435 49.8932 95.2501 49.7874 95.3238 49.6598C95.4172 49.5126 95.4783 49.3474 95.503 49.1751C95.545 48.9633 95.565 48.7479 95.5628 48.5321V48.5321Z" fill="white"/>
        <path d="M100.133 50.5008H97.9526V46.5933H98.56V50.016H100.113L100.133 50.5008Z" fill="white"/>
        <path d="M103.001 50.5799C102.758 50.5838 102.517 50.5366 102.294 50.4414C102.094 50.3535 101.92 50.2175 101.786 50.0457C101.638 49.8593 101.533 49.6433 101.477 49.4126C101.402 49.1353 101.365 48.8491 101.368 48.5619C101.366 48.2714 101.403 47.9821 101.477 47.7012C101.537 47.469 101.642 47.2507 101.786 47.0582C101.922 46.8863 102.096 46.7476 102.294 46.6526C102.517 46.5575 102.758 46.5103 103.001 46.5141C103.244 46.5111 103.484 46.5583 103.708 46.6526C103.908 46.7406 104.082 46.8765 104.216 47.0483C104.358 47.2383 104.462 47.4531 104.524 47.6814C104.657 48.2476 104.657 48.8366 104.524 49.4027C104.46 49.6334 104.356 49.8511 104.216 50.0457C104.079 50.2147 103.906 50.3502 103.708 50.4414C103.484 50.5357 103.244 50.5829 103.001 50.5799M103.997 48.5322C104.017 48.1397 103.928 47.7492 103.738 47.4045C103.66 47.2811 103.551 47.1804 103.422 47.1126C103.292 47.0448 103.147 47.0124 103.001 47.0187C102.849 47.0137 102.698 47.0478 102.563 47.1176C102.439 47.193 102.334 47.2943 102.254 47.4143C102.168 47.5662 102.104 47.7294 102.065 47.8991C102.022 48.1174 102.002 48.3395 102.005 48.5619C102.003 48.7744 102.023 48.9866 102.065 49.195C102.089 49.3628 102.147 49.5242 102.234 49.6698C102.308 49.7946 102.415 49.8972 102.543 49.9666C102.68 50.0407 102.835 50.0781 102.991 50.0754C103.15 50.076 103.307 50.0387 103.449 49.9666C103.575 49.8906 103.681 49.7854 103.758 49.6599C103.843 49.5087 103.903 49.3451 103.937 49.1752C103.979 48.9634 103.999 48.748 103.997 48.5322V48.5322Z" fill="white"/>
        <path d="M108.398 47.6123V47.1375L108.109 47.0485C108.01 47.0378 107.91 47.0378 107.81 47.0485C107.656 47.0405 107.502 47.0728 107.364 47.1422C107.226 47.2117 107.109 47.3158 107.024 47.4442C106.934 47.5904 106.869 47.7511 106.835 47.919C106.792 48.1307 106.772 48.3462 106.775 48.562C106.747 48.9634 106.833 49.3644 107.024 49.7194C107.096 49.8412 107.199 49.9413 107.324 50.0092C107.448 50.0771 107.589 50.1103 107.731 50.1052C107.846 50.1192 107.963 50.1192 108.079 50.1052C108.197 50.0855 108.311 50.0489 108.418 49.9964V49.0764H107.81V48.6511H108.965V50.3822L108.756 50.4811L108.507 50.5801L108.159 50.6592C108.006 50.6709 107.853 50.6709 107.701 50.6592C107.471 50.6614 107.243 50.6141 107.034 50.5207C106.842 50.4291 106.675 50.2934 106.546 50.125C106.403 49.9331 106.301 49.7143 106.247 49.482C106.172 49.1979 106.135 48.9052 106.137 48.6115C106.134 48.3411 106.167 48.0715 106.237 47.8102C106.289 47.5771 106.391 47.3579 106.536 47.1672C106.668 46.9902 106.838 46.8449 107.034 46.7418C107.262 46.6386 107.51 46.5879 107.761 46.5934C107.962 46.5897 108.163 46.613 108.358 46.6627C108.549 46.7104 108.735 46.7733 108.916 46.8506V47.6915L108.398 47.6123Z" fill="white"/>
        <path d="M110.698 50.5008V50.0952L110.927 50.0754V47.0186L110.698 46.9988V46.5933H111.754V46.9988L111.535 47.0186V50.0754L111.754 50.0952V50.5008H110.698Z" fill="white"/>
        <path d="M113.596 50.5008V46.5933H115.906L115.876 47.078H114.203V48.275H115.577V48.7597H114.203V50.016H115.916L115.946 50.5008H113.596Z" fill="white"/>
        <path d="M118.764 47.0189C118.574 47.008 118.386 47.0564 118.226 47.1574C118.163 47.1979 118.112 47.2538 118.077 47.3196C118.042 47.3854 118.025 47.459 118.027 47.5333C118.016 47.6055 118.016 47.6787 118.027 47.7509C118.05 47.8145 118.087 47.872 118.136 47.9191C118.213 47.9863 118.3 48.0398 118.395 48.0774C118.537 48.1485 118.684 48.2113 118.833 48.2653C118.994 48.3168 119.15 48.3796 119.301 48.4533C119.422 48.5163 119.536 48.5926 119.64 48.6808C119.735 48.7689 119.809 48.8766 119.857 48.9963C119.905 49.1159 119.926 49.2446 119.919 49.3733C119.93 49.5404 119.904 49.7078 119.842 49.8635C119.78 50.0193 119.684 50.1593 119.56 50.2735C119.274 50.4874 118.922 50.5958 118.564 50.5802H118.216L117.877 50.5208L117.569 50.4219C117.479 50.3953 117.392 50.3588 117.31 50.3131L117.449 49.858C117.629 49.9337 117.816 49.9933 118.007 50.0361C118.183 50.0748 118.364 50.0947 118.545 50.0954C118.653 50.0951 118.76 50.0784 118.863 50.046C118.953 50.0255 119.036 49.981 119.102 49.9174C119.171 49.8653 119.225 49.7974 119.262 49.7195C119.302 49.6363 119.323 49.5449 119.321 49.4524C119.322 49.3642 119.305 49.2768 119.271 49.1952C119.24 49.1258 119.192 49.0648 119.132 49.0172C119.061 48.9555 118.98 48.9054 118.893 48.8688L118.545 48.7402C118.36 48.6824 118.18 48.6096 118.007 48.5225C117.874 48.4614 117.753 48.3777 117.648 48.2752C117.562 48.1933 117.497 48.0913 117.459 47.9785C117.417 47.8543 117.397 47.7237 117.399 47.5927C117.396 47.4332 117.427 47.2748 117.489 47.1277C117.549 47.0007 117.638 46.889 117.748 46.8013C117.873 46.7082 118.015 46.6409 118.166 46.6034C118.351 46.5533 118.542 46.53 118.734 46.5342H118.973H119.212L119.481 46.5935L119.789 46.6727L119.67 47.1475L119.401 47.0782H119.172H118.963H118.764" fill="white"/>
        <path d="M123.683 50.5008L123.812 49.9864L124.748 47.0186H124.529V46.5933H125.714L126.79 49.9962L126.909 50.5107H126.302L126.003 49.5214H124.609L124.3 50.5107L123.683 50.5008ZM125.276 47.0483V47.2659L124.748 49.0268H125.854L125.326 47.2659V47.0483H125.276Z" fill="white"/>
        <path d="M128.572 50.5008V46.5933H129.309L130.544 49.0466L130.813 49.6302H130.882L130.833 49.2642V46.5933H131.43V50.5008H130.703L129.458 48.0474L129.2 47.4539H129.13L129.17 47.8298V50.5008H128.572Z" fill="white"/>
        <path d="M133.431 50.5007V46.5437H134.716C134.936 46.5428 135.155 46.5797 135.363 46.6525C135.553 46.721 135.723 46.8329 135.861 46.979C136.009 47.1531 136.121 47.3549 136.19 47.5725C136.28 47.8604 136.32 48.1615 136.309 48.4628C136.311 48.7385 136.284 49.0136 136.229 49.2839C136.181 49.5087 136.087 49.7211 135.951 49.9071C135.825 50.0805 135.657 50.2199 135.463 50.3127C135.233 50.4089 134.985 50.4561 134.736 50.4512L133.431 50.5007ZM134.039 47.0779V50.0456H134.676C134.834 50.0524 134.991 50.0219 135.134 49.9566C135.262 49.8961 135.371 49.8041 135.453 49.6895C135.54 49.5475 135.598 49.3893 135.622 49.2246C135.665 48.9996 135.685 48.7709 135.682 48.542C135.699 48.3412 135.699 48.1393 135.682 47.9385C135.649 47.7824 135.592 47.6323 135.513 47.4934C135.435 47.3736 135.329 47.275 135.204 47.2065C135.055 47.1346 134.891 47.1006 134.726 47.1076L134.039 47.0779Z" fill="white"/>
        <path d="M141.477 47.0189C141.288 47.008 141.1 47.0564 140.939 47.1574C140.877 47.1979 140.825 47.2538 140.79 47.3196C140.756 47.3854 140.738 47.459 140.74 47.5333C140.73 47.6055 140.73 47.6787 140.74 47.7509C140.763 47.8145 140.801 47.872 140.85 47.9191C140.926 47.9863 141.014 48.0398 141.109 48.0774C141.251 48.1485 141.397 48.2113 141.547 48.2653C141.707 48.3168 141.863 48.3796 142.015 48.4533C142.136 48.5163 142.249 48.5926 142.353 48.6808C142.441 48.7661 142.512 48.8667 142.562 48.9776C142.607 49.1048 142.631 49.2385 142.632 49.3733C142.643 49.5404 142.617 49.7078 142.555 49.8635C142.493 50.0193 142.397 50.1593 142.274 50.2735C141.988 50.4889 141.636 50.5974 141.278 50.5802H140.929L140.591 50.5208L140.282 50.4219C140.192 50.3953 140.105 50.3588 140.023 50.3131L140.163 49.858C140.343 49.9337 140.529 49.9933 140.72 50.0361C140.897 50.0748 141.077 50.0947 141.258 50.0954C141.366 50.0951 141.473 50.0784 141.577 50.046C141.667 50.0255 141.749 49.981 141.816 49.9174C141.887 49.8681 141.942 49.7994 141.975 49.7195C142.015 49.6363 142.036 49.5449 142.035 49.4524C142.052 49.3675 142.052 49.2801 142.035 49.1952C142.003 49.1258 141.955 49.0648 141.895 49.0172C141.824 48.9555 141.743 48.9054 141.656 48.8688L141.308 48.7402C141.123 48.6824 140.943 48.6096 140.77 48.5225C140.637 48.4614 140.516 48.3777 140.412 48.2752C140.325 48.1933 140.26 48.0913 140.222 47.9785C140.18 47.8543 140.16 47.7237 140.163 47.5927C140.16 47.4332 140.19 47.2748 140.252 47.1277C140.312 47.0007 140.401 46.889 140.511 46.8013C140.636 46.7082 140.778 46.6409 140.929 46.6034C141.114 46.5533 141.305 46.53 141.497 46.5342H141.736H141.975L142.244 46.5935L142.552 46.6727L142.433 47.1475L142.164 47.0782H141.935H141.726H141.527" fill="white"/>
        <path d="M145.829 50.5798C145.586 50.5837 145.345 50.5365 145.121 50.4413C144.922 50.3534 144.747 50.2174 144.614 50.0456C144.466 49.8592 144.361 49.6432 144.305 49.4125C144.233 49.1347 144.2 48.8485 144.205 48.5618C144.201 48.2718 144.234 47.9824 144.305 47.7011C144.365 47.4689 144.47 47.2506 144.614 47.0581C144.75 46.8862 144.923 46.7475 145.121 46.6525C145.348 46.5563 145.592 46.5091 145.838 46.514C146.078 46.511 146.316 46.5582 146.536 46.6525C146.735 46.7404 146.91 46.8764 147.043 47.0482C147.189 47.2359 147.294 47.4514 147.352 47.6813C147.485 48.2475 147.485 48.8365 147.352 49.4026C147.292 49.6348 147.187 49.8532 147.043 50.0456C146.907 50.2146 146.733 50.3501 146.536 50.4413C146.312 50.5365 146.071 50.5837 145.829 50.5798M146.824 48.5321C146.845 48.1396 146.755 47.7491 146.565 47.4043C146.488 47.281 146.379 47.1803 146.249 47.1125C146.12 47.0447 145.975 47.0123 145.829 47.0185C145.676 47.0136 145.525 47.0476 145.39 47.1175C145.267 47.1929 145.162 47.2942 145.082 47.4142C144.996 47.5661 144.932 47.7293 144.892 47.899C144.85 48.1173 144.83 48.3394 144.833 48.5618C144.831 48.7743 144.851 48.9865 144.892 49.1949C144.917 49.3627 144.974 49.5241 145.062 49.6697C145.136 49.7945 145.242 49.8971 145.37 49.9665C145.508 50.0405 145.662 50.078 145.819 50.0753C145.978 50.0759 146.135 50.0386 146.277 49.9665C146.405 49.8932 146.512 49.7874 146.585 49.6598C146.679 49.5126 146.74 49.3474 146.765 49.1751C146.806 48.9633 146.826 48.7479 146.824 48.5321V48.5321Z" fill="white"/>
        <path d="M151.395 50.5008H149.214V46.5933H149.831V50.016H151.375L151.395 50.5008Z" fill="white"/>
        <path d="M153.606 49.2246C153.59 49.3396 153.59 49.456 153.606 49.5709C153.626 49.6721 153.67 49.767 153.735 49.8479C153.8 49.92 153.878 49.9803 153.964 50.0259C154.076 50.0662 154.194 50.0863 154.313 50.0853C154.428 50.0874 154.543 50.0672 154.651 50.0259C154.736 49.9871 154.811 49.9296 154.87 49.8578C154.931 49.7747 154.975 49.6806 155 49.5808C155.016 49.4593 155.016 49.3362 155 49.2147V46.5933H155.727V49.1455C155.732 49.3391 155.708 49.5324 155.657 49.7193C155.622 49.8846 155.551 50.0401 155.448 50.1743C155.34 50.3065 155.199 50.4087 155.04 50.4711C154.836 50.5475 154.62 50.5844 154.402 50.5799C154.189 50.5873 153.976 50.5537 153.775 50.481C153.61 50.4272 153.463 50.3317 153.347 50.204C153.235 50.0789 153.153 49.93 153.108 49.7687C153.049 49.5764 153.023 49.376 153.028 49.1752V46.5933H153.636L153.606 49.2246Z" fill="white"/>
        <path d="M157.25 47.0879L157.22 46.5933H159.789L159.749 47.0879H158.803V50.5008H158.196V47.0879H157.25Z" fill="white"/>
        <path d="M161.193 50.5008V50.0952L161.422 50.0754V47.0186L161.193 46.9988V46.5933H162.259V46.9988L162.03 47.0186V50.0754L162.259 50.0952V50.5008H161.193Z" fill="white"/>
        <path d="M165.465 50.5798C165.222 50.5837 164.981 50.5365 164.758 50.4413C164.558 50.3534 164.383 50.2174 164.25 50.0456C164.102 49.8592 163.997 49.6432 163.941 49.4125C163.87 49.1347 163.836 48.8485 163.842 48.5618C163.837 48.2718 163.87 47.9824 163.941 47.7011C164.001 47.4689 164.106 47.2506 164.25 47.0581C164.386 46.8862 164.56 46.7475 164.758 46.6525C164.984 46.5563 165.228 46.5091 165.475 46.514C165.714 46.511 165.952 46.5582 166.172 46.6525C166.371 46.7404 166.546 46.8764 166.68 47.0482C166.825 47.2359 166.93 47.4514 166.988 47.6813C167.121 48.2475 167.121 48.8365 166.988 49.4026C166.928 49.6348 166.823 49.8532 166.68 50.0456C166.543 50.2146 166.369 50.3501 166.172 50.4413C165.948 50.5365 165.708 50.5837 165.465 50.5798M166.46 48.5321C166.481 48.1396 166.392 47.7491 166.202 47.4043C166.124 47.281 166.015 47.1803 165.886 47.1125C165.756 47.0447 165.611 47.0123 165.465 47.0185C165.313 47.0149 165.162 47.0489 165.027 47.1175C164.903 47.1929 164.798 47.2942 164.718 47.4142C164.632 47.5661 164.568 47.7293 164.529 47.899C164.486 48.1173 164.466 48.3394 164.469 48.5618C164.467 48.7743 164.487 48.9865 164.529 49.1949C164.553 49.3627 164.611 49.5241 164.698 49.6697C164.772 49.7945 164.879 49.8971 165.007 49.9665C165.147 50.0418 165.305 50.0793 165.465 50.0753C165.621 50.0767 165.775 50.0393 165.913 49.9665C166.041 49.8932 166.148 49.7874 166.221 49.6598C166.315 49.5126 166.376 49.3474 166.401 49.1751C166.443 48.9633 166.463 48.7479 166.46 48.5321Z" fill="white"/>
        <path d="M168.851 50.5008V46.5933H169.587L170.822 49.0466L171.091 49.6302H171.161L171.111 49.2642V46.5933H171.708V50.5008H170.982L169.737 48.0474L169.478 47.4539H169.408L169.448 47.8298V50.5008H168.851Z" fill="white"/>
        <path d="M174.825 47.0189C174.633 47.0115 174.443 47.0596 174.277 47.1574C174.216 47.1991 174.167 47.2554 174.134 47.3212C174.101 47.3869 174.085 47.4599 174.088 47.5333C174.078 47.6055 174.078 47.6787 174.088 47.7509C174.104 47.8179 174.143 47.8773 174.198 47.9191C174.273 47.9883 174.361 48.0421 174.457 48.0774C174.598 48.1503 174.744 48.2132 174.895 48.2653C175.055 48.3168 175.211 48.3796 175.363 48.4533C175.482 48.5187 175.596 48.5948 175.701 48.6808C175.789 48.7661 175.86 48.8667 175.91 48.9776C175.955 49.1048 175.979 49.2385 175.98 49.3733C175.991 49.5404 175.965 49.7078 175.903 49.8635C175.841 50.0193 175.745 50.1593 175.622 50.2735C175.336 50.4874 174.984 50.5958 174.626 50.5802H174.267L173.939 50.5208C173.834 50.4952 173.731 50.4622 173.63 50.4219C173.538 50.3934 173.448 50.357 173.361 50.3131L173.501 49.858C173.684 49.9352 173.874 49.9948 174.068 50.0361C174.245 50.0748 174.425 50.0947 174.606 50.0954C174.714 50.0951 174.822 50.0784 174.925 50.046C175.015 50.0255 175.097 49.981 175.164 49.9174C175.232 49.8653 175.287 49.7974 175.323 49.7195C175.364 49.6363 175.384 49.5449 175.383 49.4524C175.4 49.3675 175.4 49.2801 175.383 49.1952C175.351 49.1258 175.303 49.0648 175.243 49.0172C175.172 48.9555 175.091 48.9054 175.004 48.8688L174.656 48.7402C174.47 48.686 174.289 48.6131 174.118 48.5225C173.985 48.4614 173.864 48.3777 173.76 48.2752C173.67 48.196 173.604 48.0931 173.57 47.9785C173.528 47.8543 173.508 47.7237 173.511 47.5927C173.508 47.4332 173.538 47.2748 173.6 47.1277C173.66 47.0007 173.749 46.889 173.859 46.8013C173.984 46.7082 174.126 46.6409 174.277 46.6034C174.462 46.5533 174.653 46.53 174.845 46.5342H175.084H175.323L175.592 46.5935L175.891 46.6727L175.781 47.1475L175.512 47.0782H175.283H175.074H174.875" fill="white"/>
    </g>
    <defs>
        <clipPath id="clip0_597_854">
            <rect width="176" height="57" fill="white"/>
        </clipPath>
    </defs>
</svg>
