<svg  viewBox="0 0 176 58" fill="none" xmlns="http://www.w3.org/2000/svg">
    <g clip-path="url(#clip0_597_618)">
        <path d="M37.8389 19.4073H18.8V38.593H37.8389V19.4073Z" fill="#1CA29B"/>
        <path d="M18.7999 57.9997V40.797L0 26.1712V57.9997H18.7999Z" fill="#303030"/>
        <path d="M37.8486 6.86646e-05V17.2028L56.6485 31.8185V6.86646e-05H37.8486Z" fill="#303030"/>
        <path d="M56.6485 54.9902V34.0228L37.8486 19.397V57.9999H52.775L56.6485 54.9902Z" fill="#1CA29B"/>
        <path d="M0 3.00972V23.9771L18.7999 38.5928V0H3.86354L0 3.00972Z" fill="#1CA29B"/>
        <path d="M71.1367 36.9222H73.3871V10.0964H71.1367V7.86179H79.8396V10.0964H77.5892V20.9073H89.0603V10.0964H86.8099V7.86179H95.5128V10.0964H93.2624V36.9222H95.5128V39.1468H86.8099V36.9222H89.0603V23.4841H77.5892V36.9222H79.8396V39.1468H71.1367V36.9222Z" fill="#303030"/>
        <path d="M117.44 36.9223H119.78V39.1569H113.626V36.7511C112.825 37.7406 111.8 38.5208 110.638 39.026C109.413 39.5308 108.098 39.7774 106.775 39.7508C104.651 39.8689 102.566 39.1469 100.96 37.7376C100.235 37.0648 99.6656 36.239 99.2921 35.3187C98.9187 34.3984 98.7503 33.4062 98.799 32.4127C98.7512 31.3843 98.9498 30.3595 99.378 29.4253C99.8063 28.4912 100.451 27.6755 101.258 27.0476C103.321 25.6793 105.766 25.0192 108.229 25.1652H113.586V23.6553C113.63 22.9304 113.515 22.2046 113.25 21.5296C112.985 20.8546 112.576 20.2469 112.052 19.7498C110.855 18.7385 109.318 18.2336 107.761 18.3405C106.473 18.2633 105.199 18.6404 104.156 19.4075C103.211 20.1728 102.599 21.2822 102.453 22.4978H100.462V17.9882C101.699 17.4176 102.995 16.9855 104.325 16.6998C105.524 16.418 106.75 16.2762 107.98 16.277C111.037 16.277 113.377 17.042 114.95 18.5519C116.523 20.0618 117.37 22.3266 117.37 25.2458L117.44 36.9223ZM113.626 27.4401H108.647C107.144 27.323 105.65 27.7631 104.445 28.6782C103.952 29.1652 103.571 29.7557 103.328 30.4079C103.085 31.0602 102.987 31.7583 103.041 32.453C103.006 33.1338 103.113 33.8143 103.355 34.4507C103.597 35.087 103.968 35.665 104.445 36.1472C105.206 36.9126 106.178 37.4289 107.233 37.6292C108.289 37.8296 109.38 37.7046 110.364 37.2705C111.348 36.8365 112.181 36.1134 112.754 35.1951C113.326 34.2769 113.613 33.2058 113.576 32.1208L113.626 27.4401Z" fill="#303030"/>
        <path d="M158.126 36.9223H160.456V39.1569H154.302V36.7512C153.521 37.7358 152.517 38.516 151.374 39.0261C150.148 39.5289 148.834 39.7754 147.511 39.7508C145.387 39.87 143.301 39.1478 141.696 37.7376C140.969 37.0658 140.398 36.2403 140.023 35.32C139.647 34.3996 139.477 33.407 139.525 32.4127C139.477 31.3832 139.676 30.3572 140.106 29.4228C140.536 28.4883 141.184 27.6733 141.994 27.0476C144.056 25.6766 146.501 25.0163 148.965 25.1652H154.312V23.6553C154.349 22.9276 154.227 22.2005 153.955 21.5256C153.683 20.8507 153.268 20.2445 152.739 19.7498C151.541 18.7394 150.003 18.2347 148.447 18.3405C147.159 18.2607 145.884 18.6381 144.842 19.4075C144.371 19.7835 143.978 20.2502 143.685 20.7806C143.393 21.311 143.208 21.8946 143.139 22.4978H141.148V17.9882C142.385 17.4162 143.681 16.9841 145.011 16.6998C146.21 16.4175 147.436 16.2756 148.666 16.277C151.723 16.277 154.053 17.042 155.636 18.5519C157.219 20.0618 158.056 22.3266 158.056 25.2458L158.126 36.9223ZM154.302 27.4401H149.383C147.88 27.3221 146.386 27.7623 145.181 28.6783C144.688 29.1652 144.307 29.7557 144.064 30.4079C143.821 31.0602 143.723 31.7583 143.777 32.453C143.742 33.1338 143.849 33.8144 144.091 34.4507C144.333 35.087 144.704 35.665 145.181 36.1472C145.941 36.9143 146.912 37.4321 147.968 37.6333C149.023 37.8345 150.114 37.7097 151.098 37.2752C152.083 36.8407 152.915 36.1166 153.486 35.1972C154.057 34.2779 154.342 33.2058 154.302 32.1208V27.4401Z" fill="#303030"/>
        <path d="M135.323 36.9219H131.47V6.53282H123.773V8.76746H127.646V36.9219H123.773V39.1465H135.323V36.9219Z" fill="#303030"/>
        <path d="M176 36.9219H172.146V6.53282H164.459V8.76746H168.332V36.9219H164.459V39.1465H176V36.9219Z" fill="#303030"/>
        <path d="M71.1666 47.914L71.1367 47.4107H73.7058L73.6759 47.914H72.7299V51.3867H72.1225V47.914H71.1666Z" fill="#1CA29B"/>
        <path d="M75.2893 51.3867V47.4107H77.6094L77.5796 47.9039H75.8967V49.1219H77.2709V49.6151H75.8967V50.8935H77.6194L77.6493 51.3867H75.2893Z" fill="#1CA29B"/>
        <path d="M81.7319 51.2357C81.5754 51.3092 81.4119 51.3665 81.244 51.4068C81.071 51.4473 80.8939 51.4676 80.7162 51.4672C80.487 51.4742 80.2591 51.4295 80.0491 51.3364C79.8499 51.2457 79.6781 51.1033 79.5512 50.9237C79.4146 50.7285 79.3135 50.5104 79.2525 50.2794C79.1864 50.006 79.1529 49.7255 79.1529 49.444C79.1512 49.1485 79.188 48.854 79.2625 48.5682C79.3169 48.3318 79.4186 48.1092 79.5612 47.9139C79.6907 47.7342 79.8616 47.5891 80.0591 47.4912C80.2787 47.3943 80.5165 47.3462 80.7561 47.3502C81.1009 47.3407 81.4428 47.4167 81.7519 47.5717V48.4474H81.2241V47.9441C81.1504 47.9149 81.0735 47.8946 80.9951 47.8837C80.9191 47.8734 80.842 47.8734 80.766 47.8837C80.6155 47.8747 80.4655 47.9075 80.3321 47.9784C80.1987 48.0494 80.0871 48.1559 80.0093 48.2864C79.8221 48.6452 79.736 49.0491 79.7603 49.454C79.7439 49.6651 79.7439 49.8771 79.7603 50.0882C79.7922 50.2584 79.8528 50.4219 79.9396 50.5713C80.0094 50.7007 80.1126 50.8086 80.2383 50.8834C80.383 50.9584 80.5437 50.9964 80.7063 50.9941C80.857 50.9934 81.0072 50.9765 81.1544 50.9438C81.2943 50.909 81.4309 50.8618 81.5627 50.8029L81.7319 51.2357Z" fill="#1CA29B"/>
        <path d="M85.7148 51.3867V49.6554H84.1316V51.3867H83.5242V47.4107H84.1316V49.1319H85.7148V47.4107H86.3223V51.3867H85.7148Z" fill="#1CA29B"/>
        <path d="M94.567 51.4672C94.3242 51.4712 94.0832 51.4231 93.86 51.3263C93.6603 51.2369 93.4857 51.0985 93.3522 50.9237C93.2045 50.734 93.0991 50.5142 93.0435 50.2795C92.9719 49.9967 92.9384 49.7056 92.9439 49.4138C92.9391 49.1187 92.9725 48.8243 93.0435 48.5381C93.1035 48.3018 93.2083 48.0796 93.3522 47.8838C93.4881 47.7089 93.6618 47.5677 93.86 47.4711C94.0864 47.3731 94.3308 47.3251 94.577 47.3301C94.8166 47.327 95.054 47.375 95.274 47.4711C95.4737 47.5605 95.6483 47.6989 95.7818 47.8737C95.9275 48.0647 96.0326 48.284 96.0905 48.5179C96.2234 49.094 96.2234 49.6933 96.0905 50.2694C96.0305 50.5057 95.9257 50.7279 95.7818 50.9237C95.6455 51.0957 95.4717 51.2335 95.274 51.3263C95.0508 51.4231 94.8099 51.4712 94.567 51.4672ZM95.5628 49.3836C95.5835 48.9842 95.4939 48.5869 95.3039 48.2361C95.2248 48.1097 95.1141 48.0069 94.9829 47.9379C94.8517 47.8689 94.7048 47.8364 94.5571 47.8435C94.4082 47.8397 94.2608 47.8744 94.1289 47.9442C94.0055 48.0209 93.9001 48.124 93.8202 48.2461C93.7344 48.4007 93.6707 48.5667 93.631 48.7394C93.5886 48.9616 93.5686 49.1875 93.5713 49.4138C93.5691 49.63 93.5891 49.8459 93.631 50.058C93.6554 50.2288 93.7129 50.393 93.8003 50.5412C93.8743 50.6682 93.981 50.7726 94.109 50.8432C94.2464 50.9185 94.4008 50.9567 94.5571 50.9539C94.7163 50.9545 94.8734 50.9166 95.0151 50.8432C95.1435 50.7686 95.2501 50.6609 95.3238 50.5311C95.4172 50.3813 95.4783 50.2132 95.503 50.0379C95.545 49.8224 95.565 49.6032 95.5628 49.3836Z" fill="#1CA29B"/>
        <path d="M100.133 51.3867H97.9526V47.4107H98.56V50.8935H100.113L100.133 51.3867Z" fill="#1CA29B"/>
        <path d="M103.001 51.4673C102.758 51.4712 102.517 51.4232 102.294 51.3264C102.094 51.2369 101.92 51.0985 101.786 50.9237C101.638 50.7341 101.533 50.5143 101.477 50.2795C101.402 49.9973 101.365 49.7061 101.368 49.4138C101.366 49.1183 101.403 48.8239 101.477 48.5381C101.537 48.3019 101.642 48.0796 101.786 47.8838C101.922 47.7089 102.096 47.5678 102.294 47.4711C102.517 47.3743 102.758 47.3263 103.001 47.3302C103.244 47.3272 103.484 47.3751 103.708 47.4711C103.908 47.5606 104.082 47.699 104.216 47.8738C104.358 48.0671 104.462 48.2856 104.524 48.518C104.657 49.0941 104.657 49.6934 104.524 50.2695C104.46 50.5042 104.356 50.7257 104.216 50.9237C104.079 51.0957 103.906 51.2335 103.708 51.3264C103.484 51.4223 103.244 51.4703 103.001 51.4673ZM103.997 49.3836C104.017 48.9843 103.928 48.5869 103.738 48.2361C103.66 48.1106 103.551 48.0081 103.422 47.9391C103.292 47.8702 103.147 47.8372 103.001 47.8436C102.849 47.8385 102.698 47.8732 102.563 47.9442C102.439 48.021 102.334 48.124 102.254 48.2462C102.168 48.4007 102.104 48.5668 102.065 48.7394C102.022 48.9616 102.002 49.1876 102.005 49.4138C102.003 49.6301 102.023 49.846 102.065 50.0581C102.089 50.2288 102.147 50.393 102.234 50.5412C102.308 50.6682 102.415 50.7726 102.543 50.8432C102.68 50.9186 102.835 50.9567 102.991 50.9539C103.15 50.9546 103.307 50.9166 103.449 50.8432C103.575 50.7659 103.681 50.6588 103.758 50.5312C103.843 50.3773 103.903 50.2109 103.937 50.0379C103.979 49.8225 103.999 49.6032 103.997 49.3836Z" fill="#1CA29B"/>
        <path d="M108.398 48.4477V47.9645L108.109 47.8739C108.01 47.863 107.91 47.863 107.81 47.8739C107.656 47.8658 107.502 47.8987 107.364 47.9693C107.226 48.04 107.109 48.1459 107.024 48.2766C106.934 48.4253 106.869 48.5888 106.835 48.7597C106.792 48.9751 106.772 49.1944 106.775 49.414C106.747 49.8224 106.833 50.2305 107.024 50.5917C107.096 50.7156 107.199 50.8175 107.324 50.8866C107.448 50.9557 107.589 50.9895 107.731 50.9843C107.846 50.9985 107.963 50.9985 108.079 50.9843C108.197 50.9642 108.311 50.9269 108.418 50.8736V49.9374H107.81V49.5046H108.965V51.2661L108.756 51.3668L108.507 51.4675L108.159 51.548C108.006 51.5598 107.853 51.5598 107.701 51.548C107.471 51.5502 107.243 51.5021 107.034 51.4071C106.842 51.3138 106.675 51.1758 106.546 51.0044C106.403 50.8092 106.301 50.5865 106.247 50.3501C106.172 50.0611 106.135 49.7632 106.137 49.4643C106.134 49.1892 106.167 48.9149 106.237 48.649C106.289 48.4118 106.391 48.1887 106.536 47.9947C106.668 47.8146 106.838 47.6667 107.034 47.5619C107.262 47.4568 107.51 47.4052 107.761 47.4109C107.962 47.4071 108.163 47.4308 108.358 47.4813C108.549 47.5299 108.735 47.5939 108.916 47.6726V48.5282L108.398 48.4477Z" fill="#1CA29B"/>
        <path d="M110.698 51.3867V50.974L110.927 50.9539V47.8435L110.698 47.8234V47.4107H111.754V47.8234L111.535 47.8435V50.9539L111.754 50.974V51.3867H110.698Z" fill="#1CA29B"/>
        <path d="M113.596 51.3867V47.4107H115.906L115.876 47.9039H114.203V49.1219H115.577V49.6151H114.203V50.8935H115.916L115.946 51.3867H113.596Z" fill="#1CA29B"/>
        <path d="M118.764 47.8438C118.574 47.8327 118.386 47.882 118.226 47.9847C118.163 48.0259 118.112 48.0827 118.077 48.1497C118.042 48.2167 118.025 48.2915 118.027 48.3672C118.016 48.4406 118.016 48.5152 118.027 48.5886C118.05 48.6533 118.087 48.7119 118.136 48.7598C118.213 48.8281 118.3 48.8826 118.395 48.9208C118.537 48.9932 118.684 49.057 118.833 49.1121C118.994 49.1644 119.15 49.2283 119.301 49.3033C119.422 49.3674 119.536 49.4451 119.64 49.5348C119.735 49.6245 119.809 49.7341 119.857 49.8558C119.905 49.9776 119.926 50.1085 119.919 50.2395C119.93 50.4095 119.904 50.5799 119.842 50.7383C119.78 50.8968 119.684 51.0392 119.56 51.1554C119.274 51.3731 118.922 51.4834 118.564 51.4675H118.216L117.877 51.4071L117.569 51.3064C117.479 51.2794 117.392 51.2422 117.31 51.1957L117.449 50.7327C117.629 50.8097 117.816 50.8704 118.007 50.9139C118.183 50.9533 118.364 50.9735 118.545 50.9743C118.653 50.9739 118.76 50.957 118.863 50.9239C118.953 50.9031 119.036 50.8578 119.102 50.7931C119.171 50.7401 119.225 50.671 119.262 50.5918C119.302 50.5071 119.323 50.414 119.321 50.32C119.322 50.2303 119.305 50.1413 119.271 50.0583C119.24 49.9876 119.192 49.9255 119.132 49.8771C119.061 49.8143 118.98 49.7634 118.893 49.7261L118.545 49.5952C118.36 49.5365 118.18 49.4624 118.007 49.3738C117.874 49.3115 117.753 49.2264 117.648 49.1221C117.562 49.0387 117.497 48.935 117.459 48.8201C117.417 48.6938 117.397 48.561 117.399 48.4276C117.396 48.2653 117.427 48.1042 117.489 47.9545C117.549 47.8252 117.638 47.7116 117.748 47.6223C117.873 47.5276 118.015 47.4591 118.166 47.421C118.351 47.37 118.542 47.3463 118.734 47.3505H118.973H119.212L119.481 47.4109L119.789 47.4914L119.67 47.9746L119.401 47.9041H119.172H118.963H118.764" fill="#1CA29B"/>
        <path d="M123.683 51.3867L123.812 50.8633L124.748 47.8435H124.529V47.4107H125.714L126.79 50.8733L126.909 51.3968H126.302L126.003 50.3902H124.609L124.3 51.3968L123.683 51.3867ZM125.276 47.8737V48.0951L124.748 49.8869H125.854L125.326 48.0951V47.8737H125.276Z" fill="#1CA29B"/>
        <path d="M128.572 51.3867V47.4107H129.309L130.544 49.907L130.813 50.5009H130.882L130.833 50.1285V47.4107H131.43V51.3867H130.703L129.458 48.8904L129.2 48.2864H129.13L129.17 48.6689V51.3867H128.572Z" fill="#1CA29B"/>
        <path d="M133.431 51.3866V47.3602H134.716C134.936 47.3593 135.155 47.3968 135.363 47.4709C135.553 47.5406 135.723 47.6544 135.861 47.8031C136.009 47.9803 136.121 48.1856 136.19 48.407C136.28 48.7 136.32 49.0063 136.309 49.313C136.311 49.5935 136.284 49.8734 136.229 50.1485C136.181 50.3772 136.087 50.5933 135.951 50.7826C135.825 50.9591 135.657 51.1009 135.463 51.1953C135.233 51.2932 134.985 51.3412 134.736 51.3362L133.431 51.3866ZM134.039 47.9037V50.9235H134.676C134.834 50.9304 134.991 50.8994 135.134 50.8329C135.262 50.7714 135.371 50.6778 135.453 50.5612C135.54 50.4167 135.598 50.2557 135.622 50.0881C135.665 49.8592 135.685 49.6265 135.682 49.3935C135.699 49.1892 135.699 48.9838 135.682 48.7795C135.649 48.6206 135.592 48.4678 135.513 48.3265C135.435 48.2047 135.329 48.1043 135.204 48.0346C135.055 47.9615 134.891 47.9269 134.726 47.934L134.039 47.9037Z" fill="#1CA29B"/>
        <path d="M141.477 47.8438C141.288 47.8327 141.1 47.882 140.939 47.9847C140.877 48.0259 140.825 48.0827 140.79 48.1497C140.756 48.2167 140.738 48.2915 140.74 48.3672C140.73 48.4406 140.73 48.5152 140.74 48.5886C140.763 48.6533 140.801 48.7119 140.85 48.7598C140.926 48.8281 141.014 48.8826 141.109 48.9208C141.251 48.9932 141.397 49.057 141.547 49.1121C141.707 49.1644 141.863 49.2283 142.015 49.3033C142.136 49.3674 142.249 49.4451 142.353 49.5348C142.441 49.6216 142.512 49.724 142.562 49.8368C142.607 49.9662 142.631 50.1023 142.632 50.2395C142.643 50.4095 142.617 50.5799 142.555 50.7383C142.493 50.8968 142.397 51.0392 142.274 51.1555C141.988 51.3746 141.636 51.4851 141.278 51.4675H140.929L140.591 51.4071L140.282 51.3064C140.192 51.2794 140.105 51.2422 140.023 51.1957L140.163 50.7327C140.343 50.8097 140.529 50.8704 140.72 50.9139C140.897 50.9533 141.077 50.9735 141.258 50.9743C141.366 50.9739 141.473 50.957 141.577 50.9239C141.667 50.9031 141.749 50.8578 141.816 50.7931C141.887 50.743 141.942 50.673 141.975 50.5918C142.015 50.5071 142.036 50.414 142.035 50.32C142.052 50.2336 142.052 50.1447 142.035 50.0583C142.003 49.9876 141.955 49.9256 141.895 49.8771C141.824 49.8143 141.743 49.7634 141.656 49.7261L141.308 49.5952C141.123 49.5365 140.943 49.4624 140.77 49.3738C140.637 49.3115 140.516 49.2264 140.412 49.1221C140.325 49.0387 140.26 48.935 140.222 48.8201C140.18 48.6938 140.16 48.561 140.163 48.4276C140.16 48.2653 140.19 48.1042 140.252 47.9545C140.312 47.8252 140.401 47.7116 140.511 47.6223C140.636 47.5276 140.778 47.4591 140.929 47.421C141.114 47.37 141.305 47.3463 141.497 47.3505H141.736H141.975L142.244 47.4109L142.552 47.4914L142.433 47.9746L142.164 47.9041H141.935H141.726H141.527" fill="#1CA29B"/>
        <path d="M145.829 51.4672C145.586 51.4712 145.345 51.4231 145.121 51.3263C144.922 51.2369 144.747 51.0985 144.614 50.9237C144.466 50.734 144.361 50.5142 144.305 50.2795C144.233 49.9967 144.2 49.7056 144.205 49.4138C144.201 49.1187 144.234 48.8243 144.305 48.5381C144.365 48.3018 144.47 48.0796 144.614 47.8838C144.75 47.7089 144.923 47.5677 145.121 47.4711C145.348 47.3731 145.592 47.3251 145.838 47.3301C146.078 47.327 146.316 47.375 146.536 47.4711C146.735 47.5605 146.91 47.6989 147.043 47.8737C147.189 48.0647 147.294 48.284 147.352 48.5179C147.485 49.094 147.485 49.6933 147.352 50.2694C147.292 50.5057 147.187 50.7279 147.043 50.9237C146.907 51.0957 146.733 51.2335 146.536 51.3263C146.312 51.4231 146.071 51.4712 145.829 51.4672ZM146.824 49.3836C146.845 48.9842 146.755 48.5869 146.565 48.2361C146.488 48.1105 146.379 48.0081 146.249 47.9391C146.12 47.8701 145.975 47.8371 145.829 47.8435C145.676 47.8385 145.525 47.8731 145.39 47.9442C145.267 48.0209 145.162 48.124 145.082 48.2461C144.996 48.4007 144.932 48.5667 144.892 48.7394C144.85 48.9616 144.83 49.1875 144.833 49.4138C144.831 49.63 144.851 49.8459 144.892 50.058C144.917 50.2288 144.974 50.393 145.062 50.5412C145.136 50.6682 145.242 50.7726 145.37 50.8432C145.508 50.9185 145.662 50.9567 145.819 50.9539C145.978 50.9545 146.135 50.9166 146.277 50.8432C146.405 50.7686 146.512 50.6609 146.585 50.5311C146.679 50.3813 146.74 50.2132 146.765 50.0379C146.806 49.8224 146.826 49.6032 146.824 49.3836Z" fill="#1CA29B"/>
        <path d="M151.395 51.3867H149.214V47.4107H149.831V50.8935H151.375L151.395 51.3867Z" fill="#1CA29B"/>
        <path d="M153.606 50.0882C153.59 50.2051 153.59 50.3236 153.606 50.4405C153.626 50.5435 153.67 50.6401 153.735 50.7224C153.8 50.7958 153.878 50.8571 153.964 50.9035C154.076 50.9445 154.194 50.965 154.313 50.9639C154.428 50.9661 154.543 50.9456 154.651 50.9035C154.736 50.864 154.811 50.8055 154.87 50.7324C154.931 50.6479 154.975 50.5521 155 50.4506C155.016 50.327 155.016 50.2017 155 50.0781V47.4107H155.727V50.0077C155.732 50.2047 155.708 50.4014 155.657 50.5915C155.622 50.7597 155.551 50.918 155.448 51.0545C155.34 51.189 155.199 51.2931 155.04 51.3565C154.836 51.4342 154.62 51.4718 154.402 51.4672C154.189 51.4747 153.976 51.4406 153.775 51.3666C153.61 51.3119 153.463 51.2147 153.347 51.0847C153.235 50.9574 153.153 50.806 153.108 50.6418C153.049 50.4461 153.023 50.2422 153.028 50.0379V47.4107H153.636L153.606 50.0882Z" fill="#1CA29B"/>
        <path d="M157.25 47.914L157.22 47.4107H159.789L159.749 47.914H158.803V51.3867H158.196V47.914H157.25Z" fill="#1CA29B"/>
        <path d="M161.193 51.3867V50.974L161.422 50.9539V47.8435L161.193 47.8234V47.4107H162.259V47.8234L162.03 47.8435V50.9539L162.259 50.974V51.3867H161.193Z" fill="#1CA29B"/>
        <path d="M165.465 51.4672C165.222 51.4712 164.981 51.4231 164.758 51.3263C164.558 51.2369 164.383 51.0985 164.25 50.9237C164.102 50.734 163.997 50.5142 163.941 50.2795C163.87 49.9967 163.836 49.7056 163.842 49.4138C163.837 49.1187 163.87 48.8243 163.941 48.5381C164.001 48.3018 164.106 48.0796 164.25 47.8838C164.386 47.7089 164.56 47.5677 164.758 47.4711C164.984 47.3731 165.228 47.3251 165.475 47.3301C165.714 47.327 165.952 47.375 166.172 47.4711C166.371 47.5605 166.546 47.6989 166.68 47.8737C166.825 48.0647 166.93 48.284 166.988 48.5179C167.121 49.094 167.121 49.6933 166.988 50.2694C166.928 50.5057 166.823 50.7279 166.68 50.9237C166.543 51.0957 166.369 51.2335 166.172 51.3263C165.948 51.4231 165.708 51.4712 165.465 51.4672ZM166.46 49.3836C166.481 48.9842 166.392 48.5869 166.202 48.2361C166.124 48.1105 166.015 48.0081 165.886 47.9391C165.756 47.8701 165.611 47.8371 165.465 47.8435C165.313 47.8398 165.162 47.8744 165.027 47.9442C164.903 48.0209 164.798 48.124 164.718 48.2461C164.632 48.4007 164.568 48.5667 164.529 48.7394C164.486 48.9616 164.466 49.1875 164.469 49.4138C164.467 49.63 164.487 49.8459 164.529 50.058C164.553 50.2288 164.611 50.393 164.698 50.5412C164.772 50.6682 164.879 50.7726 165.007 50.8432C165.147 50.9198 165.305 50.958 165.465 50.9539C165.621 50.9553 165.775 50.9173 165.913 50.8432C166.041 50.7686 166.148 50.6609 166.221 50.5311C166.315 50.3813 166.376 50.2132 166.401 50.0379C166.443 49.8224 166.463 49.6032 166.46 49.3836Z" fill="#1CA29B"/>
        <path d="M168.851 51.3867V47.4107H169.587L170.822 49.907L171.091 50.5009H171.161L171.111 50.1285V47.4107H171.708V51.3867H170.982L169.737 48.8904L169.478 48.2864H169.408L169.448 48.6689V51.3867H168.851Z" fill="#1CA29B"/>
        <path d="M174.825 47.8438C174.633 47.8363 174.443 47.8852 174.277 47.9847C174.216 48.0271 174.167 48.0844 174.134 48.1513C174.101 48.2182 174.085 48.2925 174.088 48.3672C174.078 48.4406 174.078 48.5152 174.088 48.5886C174.104 48.6568 174.143 48.7173 174.198 48.7598C174.273 48.8302 174.361 48.8849 174.457 48.9208C174.598 48.9951 174.744 49.059 174.895 49.1121C175.055 49.1644 175.211 49.2283 175.363 49.3033C175.482 49.3699 175.596 49.4473 175.701 49.5348C175.789 49.6216 175.86 49.724 175.91 49.8368C175.955 49.9662 175.979 50.1023 175.98 50.2395C175.991 50.4095 175.965 50.5799 175.903 50.7383C175.841 50.8968 175.745 51.0392 175.622 51.1554C175.336 51.3731 174.984 51.4834 174.626 51.4675H174.267L173.939 51.4071C173.834 51.3811 173.731 51.3475 173.63 51.3064C173.538 51.2774 173.448 51.2404 173.361 51.1957L173.501 50.7327C173.684 50.8112 173.874 50.8719 174.068 50.9139C174.245 50.9533 174.425 50.9735 174.606 50.9743C174.714 50.9739 174.822 50.957 174.925 50.9239C175.015 50.9031 175.097 50.8578 175.164 50.7931C175.232 50.7401 175.287 50.671 175.323 50.5918C175.364 50.5071 175.384 50.414 175.383 50.32C175.4 50.2336 175.4 50.1447 175.383 50.0583C175.351 49.9876 175.303 49.9255 175.243 49.8771C175.172 49.8143 175.091 49.7634 175.004 49.7261L174.656 49.5952C174.47 49.5401 174.289 49.4659 174.118 49.3738C173.985 49.3115 173.864 49.2264 173.76 49.1221C173.67 49.0415 173.604 48.9368 173.57 48.8201C173.528 48.6938 173.508 48.561 173.511 48.4276C173.508 48.2653 173.538 48.1042 173.6 47.9545C173.66 47.8252 173.749 47.7116 173.859 47.6223C173.984 47.5276 174.126 47.4591 174.277 47.421C174.462 47.37 174.653 47.3463 174.845 47.3505H175.084H175.323L175.592 47.4109L175.891 47.4914L175.781 47.9746L175.512 47.9041H175.283H175.074H174.875" fill="#1CA29B"/>
    </g>
    <defs>
        <clipPath id="clip0_597_618">
            <rect width="176" height="58" fill="white"/>
        </clipPath>
    </defs>
</svg>
