<svg viewBox="0 0 16 18" fill="none" xmlns="http://www.w3.org/2000/svg">
    <path fill-rule="evenodd" clip-rule="evenodd" d="M15.8 4.42286L11.4267 0.18L10.96 0H0.666667L0 0.642857V7.71429H1.33333V1.28571H9.33333V5.78571L10 6.42857H14.6667V7.71429H16V4.88571L15.8 4.42286ZM10.6667 5.14286V1.28571L14.6667 5.14286H10.6667ZM0.666667 9L0 9.64286V17.3571L0.666667 18H15.3333L16 17.3571V9.64286L15.3333 9H0.666667ZM14.6667 15.4286V16.7143H1.33333V10.2857H14.6667V15.4286ZM4 14.1429H3.57333V15.4286H2.66667V11.5714H4.08C5.08 11.5714 5.58667 12.0343 5.58667 12.8571C5.58925 13.032 5.55243 13.2054 5.47877 13.3652C5.40511 13.525 5.29635 13.6675 5.16 13.7829C4.82957 14.0312 4.41863 14.1588 4 14.1429ZM3.92 12.2786H3.57333V13.4743H3.92C4.4 13.4743 4.64 13.2686 4.64 12.87C4.64 12.4714 4.4 12.2786 3.92 12.2786ZM9.33333 14.8886C9.53025 14.7015 9.68423 14.4767 9.78529 14.2287C9.88635 13.9806 9.93225 13.7148 9.92 13.4486C9.92 12.1629 9.21333 11.5714 7.78667 11.5714H6.37333V15.4286H7.78667C8.0687 15.4417 8.35065 15.4008 8.61615 15.3081C8.88165 15.2154 9.12542 15.0728 9.33333 14.8886ZM7.26667 14.7214V12.2786H7.70667C7.87673 12.2682 8.0472 12.2913 8.20768 12.3465C8.36816 12.4018 8.51526 12.4881 8.64 12.6C8.75301 12.7144 8.84081 12.8498 8.8981 12.9978C8.95539 13.1459 8.98098 13.3036 8.97333 13.4614C8.99331 13.8003 8.87348 14.1331 8.64 14.3871C8.51793 14.4998 8.37351 14.5875 8.21541 14.6449C8.05731 14.7023 7.8888 14.7284 7.72 14.7214H7.26667ZM13.2 13.9371H11.9067V15.4286H11V11.5714H13.32V12.2786H11.9067V13.23H13.2V13.9371Z" fill="currentColor"/>
</svg>
