<svg width="20" height="20" viewBox="0 0 21 21" fill="none" xmlns="http://www.w3.org/2000/svg">
    <path fill-rule="evenodd" clip-rule="evenodd" d="M15.9105 14.342C18.6258 10.8547 18.3805 5.80941 15.1747 2.60356C11.7033 -0.867855 6.07498 -0.867855 2.60356 2.60356C-0.867855 6.07498 -0.867855 11.7033 2.60356 15.1747C5.80941 18.3805 10.8547 18.6258 14.342 15.9105C14.3571 15.9275 14.3727 15.9441 14.389 15.9604L19.1032 20.6746C19.5371 21.1085 20.2406 21.1085 20.6746 20.6746C21.1085 20.2406 21.1085 19.5371 20.6746 19.1032L15.9604 14.389C15.9441 14.3727 15.9275 14.3571 15.9105 14.342ZM13.6033 4.17495C16.2069 6.77852 16.2069 10.9997 13.6033 13.6033C10.9997 16.2069 6.77852 16.2069 4.17495 13.6033C1.57139 10.9997 1.57139 6.77852 4.17495 4.17495C6.77852 1.57139 10.9997 1.57139 13.6033 4.17495Z" fill="currentColor"/>
</svg>
