<svg  viewBox="0 0 140 118" fill="none" xmlns="http://www.w3.org/2000/svg">
    <path d="M26.343 39.3799C27.2729 40.7972 28.2565 42.0463 28.9562 43.4365C29.6485 44.8093 30.0552 46.3249 30.5473 47.6722V39.3799H26.343ZM105.074 109.735C106.641 108.171 108.365 106.45 109.878 104.941H105.074V109.735ZM26.1032 61.0953H30.5778V52.6663C29.8996 55.8279 28.4709 58.587 26.1032 61.0953ZM15.2717 4.38877C9.23992 4.40402 4.34734 9.33821 4.38071 15.373C4.41295 21.3179 9.33042 26.2075 15.2909 26.22C21.3096 26.2324 26.2548 21.301 26.2497 15.2871C26.2458 9.26142 21.3215 4.37183 15.2717 4.38877ZM15.2496 39.3392C9.22295 39.3618 4.34055 44.3062 4.38015 50.346C4.41974 56.2904 9.3457 61.1693 15.3107 61.1704C21.3311 61.1715 26.2627 56.2339 26.2491 50.2156C26.2361 44.1938 21.304 39.3161 15.2496 39.3392ZM118.201 61.1433C120.728 61.1433 123.142 61.2749 125.538 61.1167C130.981 60.7565 135.35 56.2514 135.625 50.8847C135.907 45.3937 132.216 40.4432 126.79 39.6261C124.006 39.2071 121.108 39.5532 118.201 39.5532V61.1433ZM26.0484 4.38425C29.127 7.68256 30.6338 11.2519 30.6197 15.3978C30.6072 19.5081 28.9941 23.021 26.0789 26.2262H27.7497C59.788 26.2262 91.8251 26.2262 123.863 26.225C124.319 26.225 124.775 26.229 125.229 26.2059C131.053 25.91 135.648 21.0819 135.641 15.2759C135.63 9.1948 130.765 4.395 124.504 4.39275C92.1469 4.3775 59.7914 4.38483 27.4347 4.38483H26.0484V4.38425ZM35.0988 30.6617V113.508H100.637C100.637 110.177 100.636 106.951 100.637 103.725C100.639 101.108 101.24 100.5 103.831 100.499C107.099 100.496 110.367 100.499 113.692 100.499V30.6612H35.0988V30.6617ZM0.00113234 13.4034C0.355208 12.1887 0.630099 10.9436 1.07637 9.76398C3.22685 4.07763 8.77272 0.114136 14.852 0.045245C21.8701 -0.0349399 28.8894 0.0158804 35.9076 0.0158804C65.3508 0.0147511 94.794 0.0108016 124.236 0.0192718C131.687 0.0220952 137.737 4.58079 139.505 11.4654C141.916 20.8645 135.16 30.0649 125.439 30.5477C123.079 30.6651 120.708 30.5658 118.243 30.5658V34.9725C120.473 34.9725 122.692 34.9381 124.908 34.9787C131.925 35.1064 137.811 39.7746 139.53 46.544C141.906 55.9036 134.975 65.1751 125.315 65.5122C122.996 65.593 120.672 65.5235 118.144 65.5235V67.1679C118.144 78.6806 118.127 90.1922 118.165 101.704C118.17 103.038 117.773 104.025 116.821 104.957C112.854 108.846 108.925 112.775 105.021 116.728C104.162 117.599 103.253 118.001 102.01 118C79.2226 117.973 56.4339 117.981 33.6452 117.979C31.3086 117.978 30.6338 117.308 30.6327 114.985C30.6315 99.1052 30.6315 83.224 30.6315 67.3446V65.5495H29.0982C24.8148 65.5495 20.5302 65.5529 16.2451 65.5478C7.74104 65.5377 1.91632 60.8056 0.194583 52.5195C0.167433 52.3958 0.0667428 52.2874 0 52.1711V48.3493C0.0729646 48.185 0.178737 48.0274 0.213805 47.8546C1.78792 39.9112 7.72294 34.9951 15.8016 34.9629C19.4465 34.9488 23.0907 34.9601 26.7362 34.9601H30.536V30.5917C29.9449 30.5917 29.4488 30.5917 28.9522 30.5917C24.3962 30.5906 19.8407 30.6375 15.2852 30.5765C8.52384 30.4873 2.82074 26.2888 0.755104 19.9537C0.462114 19.0575 0.250003 18.1343 0.000566169 17.224V13.4011L0.00113234 13.4034Z" fill="currentColor"/>
    <path d="M64.4813 67.3603C61.0435 72.6452 57.7278 77.7442 54.2974 83.0167C56.889 83.0167 59.1617 83.05 61.4304 82.9862C61.8348 82.9749 62.3732 82.6621 62.5995 82.3221C64.4366 79.5665 66.2245 76.7787 67.987 73.9761C68.1595 73.7017 68.2263 73.163 68.073 72.914C66.9576 71.1047 65.7732 69.339 64.4813 67.3609V67.3603ZM67.4372 82.9388H98.7328C93.4748 74.7814 88.3164 66.7821 83.0827 58.6648C77.8287 66.8182 72.6884 74.7932 67.4378 82.9388H67.4372ZM70.9995 69.3254C74.2201 64.3342 77.2999 59.5598 80.3802 54.7848C82.4227 51.617 83.749 51.6142 85.7971 54.7888C91.8837 64.2314 97.9669 73.678 104.057 83.1183C104.689 84.0969 105.321 85.0704 104.618 86.2585C103.963 87.3681 102.86 87.3913 101.734 87.3913C84.9176 87.3834 68.1007 87.3862 51.2826 87.3862C51.0547 87.3862 50.8273 87.3924 50.5999 87.3834C48.4534 87.2992 47.4251 85.5984 48.5739 83.8129C53.2001 76.6217 57.8681 69.4553 62.5689 62.3126C63.6323 60.6971 65.3444 60.7716 66.474 62.4273C67.9847 64.6403 69.4186 66.9057 71.0006 69.3254H70.9995Z" fill="currentColor"/>
    <path d="M56.8356 50.1332C56.7949 48.948 55.7869 48.0196 54.5782 48.0529C53.3593 48.0846 52.4549 49.0462 52.4922 50.2699C52.5279 51.4642 53.542 52.4292 54.714 52.384C55.8735 52.3394 56.8758 51.2773 56.8356 50.1332ZM48.1076 50.1394C48.1319 46.4803 51.072 43.6298 54.7751 43.6783C58.3413 43.7241 61.2621 46.7107 61.2191 50.2631C61.1756 53.8133 58.2033 56.7564 54.6512 56.7654C51.0392 56.7756 48.0844 53.7828 48.1076 50.1394Z" fill="currentColor"/>
    <path d="M15.28 48.0792C14.0825 48.1 13.1193 49.0894 13.1414 50.2809C13.1623 51.4622 14.1764 52.4453 15.3529 52.4233C16.5294 52.4012 17.5147 51.3825 17.4938 50.2074C17.4717 49.0165 16.4768 48.0583 15.28 48.0786V48.0792ZM21.8756 50.2283C21.8835 53.8468 18.8858 56.8272 15.263 56.7995C11.6996 56.773 8.76574 53.8231 8.75782 50.2605C8.7516 46.6291 11.7211 43.6842 15.3693 43.7051C18.948 43.7266 21.8677 46.6545 21.8756 50.2289V50.2283Z" fill="currentColor"/>
    <path d="M15.3778 17.4787C16.5588 17.442 17.5283 16.4148 17.4921 15.2386C17.4553 14.0488 16.4457 13.1001 15.2528 13.1346C14.0565 13.169 13.1057 14.1742 13.1397 15.3639C13.1742 16.5447 14.2013 17.5154 15.3778 17.4781V17.4787ZM21.8739 15.312C21.8688 18.9299 18.8614 21.8945 15.237 21.855C11.6724 21.8149 8.75273 18.8593 8.75782 15.2922C8.76121 11.6675 11.7454 8.73061 15.3931 8.7611C18.9678 8.79329 21.879 11.7353 21.8739 15.3114V15.312Z" fill="currentColor"/>
</svg>
