<svg  viewBox="0 0 140 140" fill="none" xmlns="http://www.w3.org/2000/svg">
    <path d="M25.8816 132.567V130.738C25.8816 92.055 25.8816 53.3721 25.8816 14.6892C25.8816 11.5804 26.6813 10.7823 29.7949 10.7823C55.8989 10.7823 81.9998 10.7823 108.104 10.7823C111.402 10.7823 112.145 11.5284 112.145 14.8296C112.145 53.5125 112.145 92.1938 112.145 130.878V132.564H117.454V5.49053H20.5535V132.567H25.8785H25.8816ZM106.683 56.9052H31.3785V91.9288H106.683V56.9052ZM31.3706 132.533H106.656V97.4524H31.3706V132.533ZM31.3153 51.3137H106.664V16.2681H31.3153V51.3137ZM16.9858 0H121.042C122.549 0.839115 122.954 2.14352 122.952 3.81702C122.922 46.1781 122.929 88.5377 122.929 130.9V132.556C123.801 132.632 124.484 132.621 125.134 132.763C126.344 133.028 127.184 134.091 127.22 135.262C127.257 136.467 126.388 137.602 125.134 137.896C124.661 138.006 124.156 138.019 123.665 138.019C83.6401 138.025 43.6166 138.019 3.5899 138.039C1.88486 138.041 0.626181 137.536 0 135.867V134.79C0.626181 133.121 1.8817 132.553 3.5899 132.618C5.29336 132.683 7.00313 132.632 8.70975 132.632H15.0978V130.75C15.0978 88.4398 15.104 46.1292 15.0741 3.81702C15.0725 2.14194 15.4779 0.837538 16.9858 0Z" fill="currentColor"/>
    <path d="M135.298 138.007C133.888 137.993 132.634 136.714 132.65 135.307C132.667 133.894 133.946 132.64 135.35 132.66C136.763 132.678 138.016 133.955 138 135.359C137.983 136.769 136.705 138.021 135.298 138.007Z" fill="currentColor"/>
    <path d="M60.922 33.6978H77.1033C77.1033 32.8982 77.0734 32.1079 77.1081 31.3177C77.1838 29.5669 78.3005 28.4013 79.8383 28.4297C81.3399 28.4581 82.4235 29.5732 82.4771 31.2672C82.5308 32.9281 82.526 34.5905 82.4787 36.2498C82.4251 38.0732 81.433 39.1268 79.6222 39.1347C72.5292 39.171 65.4362 39.171 58.3431 39.1284C56.6065 39.1189 55.6097 38.0669 55.5513 36.3224C55.4946 34.6174 55.493 32.9076 55.5529 31.2057C55.6144 29.5354 56.7548 28.4171 58.2501 28.4281C59.75 28.4423 60.8289 29.5575 60.9157 31.2436C60.9567 32.037 60.9236 32.835 60.9236 33.6962L60.922 33.6978Z" fill="currentColor"/>
    <path d="M94.5823 27.0093C93.2795 27.0109 91.9766 27.055 90.6754 26.9998C89.0523 26.9304 87.9656 25.8847 87.9056 24.4383C87.8504 23.0803 88.8378 21.809 90.3599 21.7396C93.1817 21.6118 96.0145 21.6103 98.8362 21.7254C100.365 21.7869 101.368 23.0314 101.344 24.3878C101.319 25.8263 100.224 26.9225 98.6217 26.9951C97.2779 27.0566 95.9277 27.0077 94.5807 27.0093H94.5823Z" fill="currentColor"/>
    <path d="M60.9268 114.972H77.105C77.105 114.106 77.0735 113.308 77.1113 112.516C77.1949 110.806 78.2359 109.711 79.7517 109.689C81.3274 109.666 82.4252 110.784 82.4804 112.56C82.5277 114.041 82.4993 115.525 82.4914 117.008C82.4773 119.42 81.4867 120.415 79.0309 120.432C76.4252 120.453 73.8195 120.437 71.2123 120.437C67.258 120.437 63.3053 120.442 59.3511 120.437C56.4363 120.434 55.5388 119.547 55.5372 116.685C55.5357 115.382 55.5183 114.079 55.5404 112.776C55.5751 110.866 56.5846 109.708 58.195 109.689C59.8622 109.669 60.889 110.849 60.9253 112.838C60.9363 113.508 60.9268 114.18 60.9268 114.972Z" fill="currentColor"/>
    <path d="M94.5973 108.153C93.2503 108.153 91.9017 108.207 90.5563 108.141C89.0248 108.063 87.9743 107.005 87.9065 105.606C87.8418 104.238 88.815 102.961 90.3434 102.896C93.2077 102.773 96.0863 102.776 98.9506 102.909C100.455 102.978 101.43 104.301 101.334 105.656C101.235 107.062 100.189 108.032 98.6399 108.156C98.55 108.163 98.4617 108.17 98.3702 108.17C97.1131 108.17 95.8544 108.17 94.5958 108.17V108.153H94.5973Z" fill="currentColor"/>
    <path d="M94.5956 118.936C93.2486 118.935 91.8984 118.987 90.5546 118.92C89.023 118.845 87.9726 117.785 87.9063 116.386C87.8432 115.028 88.8274 113.741 90.3448 113.676C93.2091 113.555 96.0877 113.558 98.9504 113.69C100.455 113.76 101.43 115.083 101.332 116.438C101.233 117.845 100.19 118.854 98.6366 118.925C97.2927 118.987 95.9426 118.936 94.5956 118.936Z" fill="currentColor"/>
    <path d="M60.9175 74.3575H77.1019C77.1019 73.5215 77.0736 72.7297 77.1083 71.9395C77.1824 70.206 78.3196 69.0104 79.8354 69.0357C81.3038 69.0609 82.4253 70.217 82.4758 71.8826C82.5278 73.5845 82.5357 75.2928 82.471 76.9963C82.4064 78.7013 81.3559 79.7707 79.6367 79.7801C72.5483 79.8148 65.46 79.8148 58.3701 79.7785C56.6588 79.7675 55.6146 78.6871 55.5531 76.9773C55.4916 75.2754 55.4963 73.5672 55.55 71.8638C55.6036 70.206 56.7392 69.0514 58.2077 69.0357C59.6745 69.0231 60.8134 70.1745 60.9096 71.8227C60.9553 72.6208 60.9175 73.4252 60.9175 74.3558V74.3575Z" fill="currentColor"/>
    <path d="M94.543 67.7221C93.2401 67.7205 91.9357 67.7678 90.6376 67.7079C89.0288 67.6353 87.9373 66.5517 87.9042 65.1117C87.8726 63.7552 88.8742 62.5028 90.3994 62.4398C93.2212 62.323 96.0556 62.3246 98.8773 62.4492C100.396 62.5155 101.392 63.7852 101.343 65.1385C101.292 66.5848 100.204 67.6432 98.5855 67.711C97.2401 67.7662 95.8915 67.7221 94.543 67.7221Z" fill="currentColor"/>
    <path d="M94.564 78.5032C93.2612 78.5032 91.9584 78.5506 90.6571 78.4922C89.0404 78.4212 87.9521 77.3565 87.9048 75.9133C87.8622 74.5584 88.859 73.295 90.3811 73.2288C93.2029 73.1058 96.0357 73.1057 98.8574 73.2256C100.38 73.2887 101.38 74.5458 101.343 75.9007C101.307 77.3423 100.215 78.4197 98.6035 78.4907C97.2596 78.549 95.9095 78.5017 94.5625 78.5017L94.564 78.5032Z" fill="currentColor"/>
</svg>
