<svg  viewBox="0 0 140 140" fill="none" xmlns="http://www.w3.org/2000/svg">
    <path d="M69.8541 135.845C90.4011 135.845 110.95 135.845 131.497 135.843C132.043 135.843 132.598 135.874 133.135 135.789C134.768 135.537 135.928 134.138 135.879 132.548C135.826 130.926 134.617 129.665 132.94 129.511C132.442 129.466 131.938 129.476 131.438 129.476C90.4792 129.474 49.5206 129.474 8.56364 129.476C8.01706 129.476 7.46728 129.466 6.92389 129.525C5.43872 129.688 4.31049 130.809 4.12883 132.264C3.95195 133.692 4.79333 135.134 6.20042 135.58C6.87608 135.796 7.63141 135.832 8.3485 135.832C28.8509 135.845 49.3517 135.843 69.8541 135.843V135.845ZM61.4737 125.305C61.4737 123.105 61.4625 121.06 61.4785 119.016C61.488 117.959 62.0952 117.14 63.0656 117.118C63.7939 117.103 64.6512 117.596 65.2233 118.114C65.5627 118.423 65.5356 119.218 65.5484 119.797C65.5866 121.605 65.5627 123.415 65.5627 125.274H126.566V123.827C126.566 103.692 126.566 83.5564 126.566 63.4222C126.566 61.3314 126.452 61.2231 124.286 61.2231C105.471 61.2231 86.6531 61.2231 67.8367 61.2231C65.5882 61.2231 65.5627 61.2486 65.5611 63.5369C65.5611 78.6149 65.5643 93.6929 65.5579 108.772C65.5579 110.505 64.836 111.462 63.5516 111.507C62.2593 111.552 61.4642 110.583 61.4642 108.895C61.4578 93.4522 61.453 78.011 61.4689 62.568C61.4737 59.228 63.6218 57.1357 66.9698 57.1261C71.5241 57.115 76.0816 57.123 80.6375 57.123H84.0954C84.1225 56.5413 84.1592 56.0983 84.1592 55.6537C84.1624 39.7104 84.164 23.7687 84.1608 7.82219C84.1592 5.12274 83.1394 4.10135 80.4575 4.10135C59.3639 4.09816 38.2703 4.09816 17.1751 4.10135C14.3992 4.10135 13.4239 5.09251 13.4239 7.90669C13.4223 46.5355 13.4223 85.1659 13.4223 123.793V125.304H61.4721L61.4737 125.305ZM0.00159509 131.208C0.721872 129.968 1.28758 128.599 2.19908 127.52C3.52649 125.948 5.41002 125.355 7.46727 125.377C8.04572 125.383 8.62579 125.379 9.32216 125.379V123.449C9.32216 84.9986 9.32216 46.5482 9.32216 8.09787C9.32216 2.72766 12.028 0.00119515 17.3631 0.00119515C38.3228 -0.000398383 59.2842 -0.000398383 80.2423 0.00119515C85.4978 0.00119515 88.2626 2.75161 88.2641 7.98636C88.2657 23.7034 88.2641 39.4204 88.2641 55.139V57.1245H89.8928C101.513 57.1245 113.131 57.123 124.751 57.1261C128.593 57.1261 130.663 59.1834 130.665 63.0222C130.67 83.2043 130.666 103.388 130.666 123.57V125.385C131.439 125.385 132.109 125.363 132.776 125.388C136.553 125.527 139.501 128.174 139.947 131.809C140.373 135.284 138.191 138.546 134.708 139.655C134.456 139.736 134.218 139.856 133.973 139.956H6.01558C2.9082 139.053 0.865288 137.088 0 133.942V131.209L0.00159509 131.208Z" fill="currentColor"/>
    <path d="M114.35 5.1457C121.646 5.21103 128.066 9.6825 130.56 16.4391C131.149 18.0326 130.792 19.2118 129.588 19.65C128.35 20.1026 127.377 19.5018 126.726 17.8844C124.398 12.1046 119.301 8.89368 113.074 9.28569C107.599 9.6283 102.706 13.7747 101.323 19.3488C100.224 23.7852 101.306 27.9252 103.344 31.8612C105.796 36.5988 109.388 40.3755 113.595 43.5849C113.883 43.8048 114.655 43.7856 114.945 43.5546C120.447 39.1692 125.04 34.1065 127.001 27.1109C127.406 25.6688 128.42 25.076 129.645 25.4202C130.804 25.7453 131.31 26.8384 130.92 28.3093C129.752 32.6994 127.626 36.6275 124.586 39.9501C122.17 42.5905 119.453 44.9665 116.753 47.3297C115.313 48.5918 113.525 48.6396 112.073 47.5703C105.795 42.9523 100.62 37.3861 98.074 29.8614C95.4957 22.2475 96.5363 15.2838 102.651 9.59965C105.919 6.56397 109.88 5.12657 114.352 5.1457H114.35Z" fill="currentColor"/>
    <path d="M119.805 22.5402C119.795 19.4678 117.338 16.9867 114.28 16.9612C111.2 16.9357 108.612 19.5124 108.629 22.588C108.647 25.6252 111.155 28.1319 114.192 28.151C117.324 28.1701 119.814 25.681 119.805 22.5402ZM123.903 22.5943C123.89 27.9884 119.54 32.2878 114.138 32.2495C108.859 32.2129 104.5 27.8052 104.527 22.529C104.555 17.189 109 12.8084 114.339 12.8578C119.652 12.9104 123.919 17.2513 123.903 22.5928V22.5943Z" fill="currentColor"/>
    <path d="M52.9049 93.4925H44.7141V101.635H52.9049V93.4925ZM48.7649 89.3174C50.1305 89.3159 51.4946 89.2936 52.8603 89.3223C55.3207 89.3733 56.9971 90.9477 57.0624 93.4033C57.1373 96.176 57.1405 98.9536 57.0624 101.726C56.9939 104.18 55.2873 105.777 52.846 105.799C50.1178 105.823 47.3865 105.828 44.6568 105.798C42.3079 105.771 40.5837 104.136 40.5248 101.782C40.4531 98.9631 40.4515 96.1394 40.5264 93.3204C40.5885 90.962 42.2856 89.3796 44.6695 89.3223C46.0336 89.2888 47.3992 89.3159 48.7649 89.3159V89.3174Z" fill="currentColor"/>
    <path d="M44.6786 50.4745H52.8774V42.2996H44.6786V50.4745ZM48.6593 54.6543C47.3398 54.6543 46.0188 54.6861 44.7009 54.6463C42.282 54.5762 40.5721 52.9173 40.5211 50.5063C40.4637 47.7782 40.4717 45.0453 40.5163 42.3155C40.5578 39.9205 42.1162 38.2138 44.4922 38.1261C47.3542 38.021 50.2273 38.0226 53.0893 38.1261C55.4175 38.209 56.9966 39.8408 57.062 42.1721C57.14 44.9911 57.1496 47.8148 57.0556 50.6354C56.9775 52.9922 55.2597 54.5793 52.8933 54.6463C51.4846 54.6877 50.0712 54.6543 48.6609 54.6543H48.6593Z" fill="currentColor"/>
    <path d="M23.818 50.4766H31.9338V42.2604H23.818V50.4766ZM19.6302 46.3239C19.6286 44.9598 19.6015 43.5942 19.6349 42.2301C19.6907 39.8924 21.1743 38.2191 23.5168 38.1251C26.4234 38.0104 29.3427 38.0072 32.2477 38.1267C34.5807 38.2224 36.0834 39.9194 36.112 42.2492C36.1455 45.0251 36.1519 47.7995 36.1073 50.5738C36.0722 52.8589 34.4484 54.5608 32.1601 54.623C29.2965 54.6995 26.4266 54.701 23.563 54.6214C21.2779 54.5576 19.7003 52.8621 19.6365 50.5531C19.5983 49.1444 19.6286 47.7325 19.6286 46.3239H19.6302Z" fill="currentColor"/>
    <path d="M65.6824 50.4567H73.7505V42.2388H65.6824V50.4567ZM77.9606 46.3422C77.959 47.7524 77.9909 49.1643 77.9526 50.5714C77.8921 52.8645 76.297 54.5617 74.0039 54.6222C71.1403 54.6987 68.2703 54.7003 65.4067 54.6206C63.1232 54.5568 61.5201 52.8565 61.4819 50.5539C61.4373 47.7795 61.4405 45.0036 61.4787 42.2309C61.5106 39.8963 63.0165 38.2199 65.3558 38.1243C68.2624 38.0096 71.1817 38.008 74.0867 38.1275C76.4213 38.2247 77.9064 39.917 77.9543 42.2484C77.9829 43.6124 77.9606 44.9781 77.959 46.3422H77.9606Z" fill="currentColor"/>
    <path d="M44.6878 24.8225H52.8977V16.7003H44.6878V24.8225ZM48.8644 12.5348C50.1839 12.5364 51.5033 12.5204 52.8227 12.5395C55.2864 12.573 56.9867 14.1331 57.0584 16.5855C57.1412 19.3583 57.1349 22.1359 57.0632 24.9102C56.9979 27.42 55.296 28.9928 52.7447 29.0135C50.1058 29.0359 47.4653 29.0374 44.828 29.0135C42.2258 28.9912 40.5494 27.353 40.5112 24.7635C40.4729 22.08 40.4665 19.395 40.5143 16.7114C40.559 14.2064 42.2577 12.5731 44.7691 12.538C46.1347 12.5173 47.4988 12.5332 48.8629 12.5332L48.8644 12.5348Z" fill="currentColor"/>
    <path d="M44.6657 76.013H52.8979V67.8813H44.6657V76.013ZM48.8917 63.6919C50.1666 63.6919 51.4413 63.6807 52.7146 63.6951C55.2435 63.7221 56.9949 65.3061 57.065 67.7904C57.1431 70.5647 57.1383 73.3439 57.065 76.1166C56.9996 78.5196 55.4061 80.1371 52.9983 80.2072C50.1793 80.29 47.3524 80.2933 44.535 80.2009C42.1559 80.1228 40.5639 78.4416 40.5193 76.0577C40.4683 73.328 40.4667 70.5966 40.5193 67.8669C40.5671 65.3857 42.3041 63.7301 44.7948 63.6951C46.1604 63.6759 47.526 63.6918 48.8901 63.6902L48.8917 63.6919Z" fill="currentColor"/>
    <path d="M23.841 76.0456H31.9155V67.8357H23.841V76.0456ZM36.1208 71.9629C36.1192 73.3732 36.1511 74.785 36.1128 76.1937C36.0523 78.3832 34.5942 80.074 32.4063 80.1664C29.3642 80.2923 26.3094 80.2923 23.269 80.1537C21.148 80.0565 19.6867 78.3785 19.6485 76.2511C19.5959 73.386 19.5911 70.5191 19.6501 67.6556C19.6963 65.3848 21.3934 63.7419 23.6833 63.7068C26.4576 63.6654 29.2335 63.6686 32.0079 63.7053C34.4221 63.7371 36.0682 65.4278 36.116 67.8707C36.1431 69.2348 36.1208 70.6004 36.1192 71.9645L36.1208 71.9629Z" fill="currentColor"/>
    <path d="M31.9332 16.7147H23.8476V24.8673H31.9332V16.7147ZM27.9223 29.02C26.512 29.0184 25.1017 29.0471 23.693 29.0121C21.3728 28.9547 19.6997 27.3707 19.6518 25.0856C19.5929 22.222 19.5929 19.3552 19.6502 16.4917C19.6965 14.1938 21.3601 12.5795 23.6707 12.5477C26.4913 12.5078 29.3118 12.5062 32.1324 12.5508C34.4207 12.5859 36.0732 14.24 36.1098 16.5379C36.156 19.3568 36.156 22.1774 36.1114 24.9964C36.0732 27.3548 34.4079 28.9595 32.016 29.0136C30.6536 29.0455 29.2879 29.02 27.9223 29.02Z" fill="currentColor"/>
    <path d="M65.646 24.8022H73.7539V16.6799H65.646V24.8022ZM69.6983 12.5384C71.1086 12.5384 72.5189 12.5097 73.9275 12.5448C76.2302 12.6021 77.9002 14.2148 77.9401 16.5015C77.9911 19.3651 77.9926 22.2319 77.9384 25.097C77.8954 27.3184 76.2477 28.9597 74.0215 29.0012C71.1564 29.0554 68.2896 29.0537 65.426 29.0027C63.1887 28.9645 61.5347 27.3454 61.4869 25.1225C61.4247 22.2143 61.4215 19.2997 61.49 16.3915C61.5426 14.1829 63.2254 12.6037 65.4675 12.5463C66.8778 12.5113 68.2881 12.5399 69.6967 12.5399L69.6983 12.5384Z" fill="currentColor"/>
    <path d="M31.9722 93.4995H23.7958V101.601H31.9722V93.4995ZM28.0203 89.3149C29.3381 89.3165 30.6592 89.2894 31.977 89.3213C34.455 89.3834 36.0772 90.9833 36.109 93.4453C36.1457 96.1718 36.1425 98.9016 36.1106 101.631C36.0804 104.151 34.4231 105.779 31.883 105.8C29.2011 105.822 26.516 105.824 23.8325 105.8C21.3004 105.778 19.6654 104.152 19.6319 101.607C19.5985 98.9254 19.6001 96.2404 19.6319 93.5584C19.6622 90.9339 21.2733 89.3611 23.9281 89.3196C25.2921 89.2989 26.6578 89.3164 28.0219 89.3164L28.0203 89.3149Z" fill="currentColor"/>
    <path d="M110.945 112.124H117.547V105.71H110.945V112.124ZM121.705 108.867C121.703 110.142 121.73 111.416 121.698 112.69C121.647 114.769 120.43 116.167 118.35 116.254C115.626 116.368 112.891 116.363 110.164 116.261C108.168 116.187 106.887 114.951 106.808 112.996C106.695 110.272 106.697 107.536 106.812 104.811C106.891 102.909 108.155 101.666 110.062 101.594C112.834 101.489 115.616 101.482 118.385 101.587C120.438 101.666 121.652 103.092 121.702 105.182C121.73 106.411 121.705 107.638 121.705 108.867Z" fill="currentColor"/>
    <path d="M74.5121 112.11H81.1412V105.73H74.5121V112.11ZM85.3147 108.918C85.3147 110.238 85.3529 111.559 85.3035 112.876C85.2366 114.73 84.035 116.138 82.1833 116.221C79.3245 116.347 76.4514 116.349 73.591 116.234C71.7106 116.159 70.4709 114.87 70.3928 112.956C70.2845 110.277 70.2829 107.586 70.3896 104.907C70.4677 102.95 71.7633 101.666 73.7122 101.593C76.4387 101.489 79.1747 101.484 81.9013 101.582C84.0286 101.656 85.2733 103.081 85.3147 105.234C85.3402 106.461 85.3194 107.693 85.3194 108.92H85.313L85.3147 108.918Z" fill="currentColor"/>
    <path d="M81.1569 72.2377H74.5278V78.6262H81.1569V72.2377ZM85.324 75.4726C85.324 76.7028 85.3479 77.9314 85.3176 79.1585C85.265 81.3209 83.8835 82.7423 81.7115 82.7853C79.1634 82.8347 76.6122 82.8299 74.0657 82.7885C71.9304 82.7566 70.4771 81.4643 70.391 79.3592C70.2843 76.7251 70.2843 74.0783 70.3878 71.4441C70.4707 69.3311 71.9256 68.0658 74.0641 68.0451C76.6137 68.0196 79.1634 68.0149 81.7099 68.0468C83.893 68.0754 85.2651 69.4634 85.3193 71.6497C85.3495 72.9229 85.324 74.1978 85.324 75.471V75.4726Z" fill="currentColor"/>
    <path d="M92.7292 112.108H99.3614V105.712H92.7292V112.108ZM88.5748 108.888C88.5748 107.661 88.5541 106.432 88.578 105.204C88.6226 103.115 89.8385 101.674 91.883 101.593C94.6541 101.483 97.4332 101.488 100.204 101.591C102.145 101.664 103.428 102.963 103.506 104.926C103.613 107.56 103.611 110.204 103.517 112.841C103.446 114.873 102.171 116.177 100.144 116.256C97.4173 116.365 94.6828 116.368 91.9578 116.256C89.8241 116.169 88.6162 114.746 88.5764 112.574C88.5557 111.347 88.5732 110.118 88.5732 108.888H88.5748Z" fill="currentColor"/>
    <path d="M92.7335 78.6331H99.3562V72.2255H92.7335V78.6331ZM96.1165 68.0393C97.3467 68.0409 98.5754 68.025 99.804 68.0425C102.008 68.0775 103.445 69.3588 103.52 71.5531C103.609 74.1442 103.613 76.7431 103.509 79.3342C103.424 81.4409 101.979 82.7524 99.8581 82.7875C97.3085 82.8305 94.7589 82.8336 92.2108 82.7858C89.9735 82.746 88.6015 81.3134 88.576 79.0506C88.5489 76.6396 88.552 74.2254 88.5743 71.8144C88.5966 69.4018 89.9767 68.0648 92.4307 68.0409C93.6593 68.0282 94.8895 68.0377 96.1165 68.0377V68.0393Z" fill="currentColor"/>
    <path d="M74.537 95.3476H81.1343V88.9098H74.537V95.3476ZM77.7847 99.5227C76.5099 99.5211 75.235 99.5498 73.9618 99.5132C71.9013 99.4574 70.4735 98.2064 70.3907 96.1476C70.2823 93.4689 70.2823 90.7774 70.4002 88.0971C70.4863 86.1275 71.9046 84.8288 73.8901 84.7778C76.529 84.7093 79.1711 84.7045 81.8084 84.7778C83.915 84.8368 85.2791 86.2709 85.311 88.3633C85.3492 90.8651 85.3476 93.3701 85.3141 95.8719C85.2839 98.1331 83.9038 99.4734 81.6076 99.518C80.3327 99.5451 79.0579 99.5212 77.7831 99.5212L77.7847 99.5227Z" fill="currentColor"/>
    <path d="M92.7596 95.3481H99.36V88.9087H92.7596V95.3481ZM95.9976 99.5184C94.6782 99.5184 93.3555 99.5551 92.0377 99.5089C90.0155 99.4387 88.626 98.0571 88.5893 96.0285C88.5431 93.4805 88.5495 90.9325 88.5861 88.3844C88.6164 86.2825 89.9677 84.8404 92.0696 84.7798C94.7084 84.7033 97.3521 84.7097 99.9894 84.7766C102.036 84.8292 103.436 86.163 103.514 88.2138C103.615 90.8495 103.623 93.4964 103.511 96.1305C103.422 98.2531 101.991 99.4738 99.8237 99.52C98.5489 99.5455 97.2741 99.5247 95.9992 99.5247V99.5168L95.9976 99.5184Z" fill="currentColor"/>
    <path d="M117.514 72.2379H110.976V78.6646H117.514V72.2379ZM121.707 75.3612C121.705 76.636 121.732 77.9109 121.699 79.1841C121.645 81.2924 120.301 82.7266 118.21 82.7792C115.573 82.8429 112.931 82.8381 110.292 82.7807C108.307 82.7377 106.887 81.4502 106.809 79.4726C106.697 76.7476 106.694 74.0115 106.815 71.2866C106.904 69.301 108.34 68.0756 110.343 68.0501C112.937 68.0166 115.532 68.0151 118.126 68.0501C120.296 68.0788 121.652 69.4732 121.702 71.677C121.731 72.9056 121.707 74.1326 121.707 75.3612Z" fill="currentColor"/>
    <path d="M117.531 88.9314H110.944V95.3724H117.531V88.9314ZM114.12 99.5204C112.845 99.5188 111.57 99.5506 110.297 99.5124C108.348 99.4534 106.915 98.2758 106.828 96.3652C106.7 93.5526 106.705 90.7241 106.832 87.9099C106.915 86.0869 108.319 84.8376 110.193 84.785C112.878 84.7069 115.567 84.7021 118.248 84.785C120.347 84.8471 121.663 86.2892 121.694 88.4182C121.729 90.92 121.732 93.4251 121.692 95.9269C121.659 98.1165 120.282 99.463 118.078 99.5172C116.76 99.5491 115.439 99.522 114.12 99.5204Z" fill="currentColor"/>
</svg>
