<svg viewBox="0 0 140 140" fill="none" xmlns="http://www.w3.org/2000/svg">
    <path d="M77.3647 111.848H91.2288V107.699H77.3647V111.848ZM48.7321 111.834H62.5832V107.707H48.7321V111.834ZM91.2579 53.472H77.3864V57.5099H91.2579V53.472ZM48.7016 57.507H62.6137V53.4067H48.7016V57.507ZM119.89 107.712H105.948V111.833H119.89V107.712ZM34.0421 107.73H20.13V111.866H34.0421V107.73ZM105.946 57.5142H119.837V53.3573H105.946V57.5142ZM20.1068 57.5229H34.0116V53.3965H20.1068V57.5229ZM116.079 61.8134H109.739V103.489H116.079V61.8134ZM81.0949 103.442H87.4493V61.7785H81.0949V103.442ZM58.8834 61.8134H52.5305V103.478H58.8834V61.8134ZM10.4939 49.0755H129.466V45.3338H10.4939V49.0755ZM130.695 120.009C130.695 119.492 130.693 119.132 130.696 118.775C130.715 116.061 130.715 116.061 128.066 116.061C89.6192 116.061 51.1734 116.055 12.7277 116.071C9.0265 116.073 9.20794 115.305 9.32696 119.736C9.32986 119.812 9.4213 119.887 9.50112 120.007H130.696L130.695 120.009ZM135.866 128.14C135.866 127.099 135.983 126.175 135.816 125.302C135.737 124.88 135.186 124.427 134.74 124.233C134.318 124.05 133.755 124.182 133.254 124.182C91.3551 124.182 49.4564 124.177 7.55763 124.189C3.80855 124.189 4.04223 123.606 4.14238 127.87C4.14383 127.945 4.2324 128.018 4.31368 128.14H135.865H135.866ZM63.187 61.8018V103.454C65.9767 104.335 66.7837 105.419 66.8011 108.239C66.8069 109.45 66.8025 110.659 66.8025 111.872H73.1758C73.1758 110.717 73.1744 109.638 73.1758 108.56C73.1816 105.406 73.8478 104.455 76.8204 103.41V61.8323C73.9146 60.87 73.186 59.8583 73.1758 56.819C73.1729 55.6985 73.1758 54.5751 73.1758 53.4154H66.8025C66.8025 54.6956 66.8098 55.8698 66.8011 57.044C66.7808 59.8467 65.9578 60.9411 63.187 61.8018ZM105.447 103.454V61.8018C102.647 60.9846 101.759 59.8032 101.749 56.9439C101.743 55.7754 101.747 54.6084 101.747 53.411H95.4235C95.4235 54.5126 95.4235 55.5098 95.4235 56.5098C95.422 59.883 94.8458 60.7248 91.7122 61.8845V103.364C94.9068 104.596 95.4235 105.368 95.4235 108.878C95.4235 109.863 95.4235 110.847 95.4235 111.952H98.5818H101.747C101.747 110.596 101.744 109.463 101.749 108.328C101.76 105.473 102.644 104.288 105.447 103.454ZM48.2487 103.41V61.8468C45.2689 60.8584 44.5578 59.8598 44.5563 56.7232C44.5563 55.6419 44.5563 54.5576 44.5563 53.3936H38.3079C37.9203 56.6811 39.4792 60.7974 34.5036 61.8148V103.432C37.4283 104.341 38.2266 105.439 38.2324 108.524C38.2338 109.637 38.2324 110.75 38.2324 111.869H44.5563C44.5563 110.71 44.5563 109.627 44.5563 108.544C44.5592 105.406 45.2631 104.415 48.2487 103.409V103.41ZM0.00145286 123.771C1.58643 120.947 1.79252 120.788 5.18164 119.904C5.18164 118.929 5.15551 117.897 5.18599 116.867C5.26873 114.061 7.21072 112.068 10.0178 111.977C11.9206 111.914 13.825 111.964 15.9121 111.964C15.9121 110.651 15.9063 109.483 15.9121 108.316C15.9252 105.466 16.8077 104.29 19.6815 103.431V100.374C19.6815 97.5914 20.2084 96.6001 21.699 96.5754C23.2376 96.5508 23.7862 97.5668 23.7862 100.445V103.416H30.2625V61.8338H23.7862V63.2895C23.7862 71.4902 23.7876 79.6908 23.7847 87.8914C23.7833 88.3457 23.8196 88.8146 23.7238 89.2515C23.493 90.3067 22.8239 90.9583 21.7164 90.9482C20.6133 90.938 19.9442 90.282 19.7367 89.221C19.6423 88.7377 19.683 88.2238 19.6815 87.7231C19.6801 79.1146 19.6801 70.5061 19.6801 61.9223C16.4709 60.6523 15.9121 59.8264 15.9107 56.4155C15.9092 55.4271 15.9092 54.4372 15.9092 53.3036C14.0688 53.3036 12.3953 53.3196 10.7218 53.3007C7.85228 53.2673 6.35002 51.7607 6.31664 48.9028C6.30357 47.7301 6.31377 46.5559 6.31377 45.325C5.10472 45.2496 4.01611 45.2597 2.95366 45.1015C1.2845 44.8519 0.381708 43.8707 0.232209 42.1885C0.14222 41.1943 0.223501 40.1841 0.159637 39.1855C0.0391676 37.2638 0.908592 36.0576 2.60242 35.1795C11.4867 30.5697 20.3405 25.8989 29.2044 21.25C42.1397 14.4688 55.088 7.7124 67.9927 0.874661C70.0959 -0.240046 71.9421 -0.345989 74.0162 0.886284C76.6738 2.4669 79.4402 3.86175 82.166 5.32771C83.0587 5.80668 83.7539 6.40028 83.6871 7.53385C83.5928 9.12318 82.0456 9.88085 80.433 9.03901C77.6506 7.58612 74.8827 6.10273 72.1511 4.55259C71.2933 4.06636 70.6561 4.10555 69.7911 4.56131C48.4114 15.8129 27.0215 27.0427 5.60545 38.2246C4.31947 38.8966 4.03499 39.6862 4.44284 41.0273H135.549C135.939 39.6789 135.641 38.8705 134.318 38.1607C119.599 30.2722 104.92 22.311 90.2317 14.3658C89.7919 14.1292 89.342 13.8927 88.9544 13.585C88.0879 12.9057 87.8615 12.0058 88.3753 11.0362C88.895 10.0565 89.7977 9.7967 90.8297 10.0928C91.2593 10.2162 91.6584 10.4629 92.0576 10.6777C107.108 18.8145 122.143 26.9745 137.216 35.0677C139.047 36.0518 139.991 37.3146 139.817 39.3974C139.761 40.0752 139.822 40.7632 139.804 41.4468C139.74 43.9897 138.56 45.1639 136.001 45.2292C135.282 45.2481 134.56 45.2321 133.66 45.2321C133.66 46.5515 133.675 47.7649 133.657 48.9798C133.615 51.7462 132.098 53.2615 129.313 53.2992C127.635 53.3225 125.957 53.3036 124.063 53.3036C124.063 54.4837 124.065 55.5562 124.063 56.6288C124.06 59.8206 123.345 60.8308 120.332 61.854V103.361C123.446 104.548 124.062 105.437 124.063 108.724C124.065 109.723 124.065 110.721 124.065 111.948C125.676 111.948 127.201 111.948 128.728 111.948C133.062 111.951 134.797 113.668 134.8 117.957C134.8 118.592 134.8 119.228 134.8 119.912C135.154 120.005 135.453 120.103 135.758 120.157C138.205 120.59 139.843 122.369 139.954 124.822C140.016 126.231 140.012 127.646 139.962 129.059C139.888 131.094 138.723 132.202 136.665 132.282C136.347 132.294 136.028 132.287 135.708 132.287C91.8805 132.288 48.0543 132.279 4.22658 132.313C2.31938 132.314 0.84619 131.864 0 130.054V123.767L0.00145286 123.771Z" fill="currentColor"/>
</svg>
